<?xml version="1.0" encoding="UTF-8"?> <svg xmlns="http://www.w3.org/2000/svg" width="672" height="417" viewBox="0 0 672 417" fill="none"><rect width="672" height="417" fill="white"></rect><path d="M420.953 218.216C420.807 218.297 420.786 218.419 420.807 218.561C420.62 219.169 420.412 219.777 419.935 220.243C419.768 220.324 419.748 220.466 419.768 220.607C419.602 221.053 419.519 221.54 419.083 221.864C418.916 221.945 418.896 222.087 418.937 222.249C418.771 222.918 418.584 223.566 418.085 224.093L418.106 224.073C417.607 225.349 417.13 226.646 416.257 227.741C415.717 228.754 415.114 229.706 413.971 230.173C413.826 230.395 413.597 230.517 413.327 230.558L413.348 230.537C411.81 231.53 410.086 231.834 408.32 231.51C404.912 230.841 402.606 228.876 401.505 225.613C401.401 225.289 401.505 224.944 401.318 224.62L401.359 224.559L401.318 224.498C401.421 224.417 401.525 224.336 401.588 224.215C401.608 211.427 401.588 198.64 401.608 185.954C401.712 186.055 401.588 186.299 401.588 186.522C401.588 198.843 401.588 211.144 401.588 223.465C401.588 223.728 401.629 224.012 401.525 224.255C401.234 224.316 401.172 224.113 401.11 223.911C400.985 223.424 400.964 222.918 400.964 222.411C400.964 210.353 400.964 198.316 400.964 186.258C400.964 184.86 400.964 184.86 402.398 184.86C404.787 184.86 407.177 184.86 409.566 184.86C410.647 184.86 410.73 184.941 410.73 186.015C410.73 188.812 410.751 191.608 410.73 194.425C410.709 197.323 410.834 200.221 410.834 203.119C410.834 205.773 410.668 208.448 410.751 211.103C410.855 214.447 410.688 217.77 410.73 221.114C410.73 221.783 410.772 222.452 410.917 223.12C410.938 223.242 410.917 223.363 410.917 223.526C411.104 223.201 411.333 222.938 411.395 222.593C411.873 221.823 412.143 220.932 412.683 220.182L412.745 220.141L412.725 220.06C413.348 218.419 414.221 216.879 415.031 215.338L415.01 215.359C415.696 213.596 416.631 211.954 417.483 210.252V210.272C417.857 209.543 417.94 208.671 418.542 208.043L418.522 208.063C418.709 207.476 418.958 206.908 419.332 206.402C419.394 206.26 419.477 206.118 419.54 205.956C421.057 202.754 422.615 199.572 424.173 196.391C425.004 194.688 425.939 193.047 426.625 191.284C426.729 191.041 426.833 190.777 427.061 190.615L427.041 190.635C427.56 189.298 428.204 188.001 428.89 186.744C428.952 186.603 429.014 186.481 429.077 186.339C429.472 185.772 429.721 185.123 430.386 184.738C431.362 184.171 431.84 184.171 432.775 185.022C432.9 185.144 433.004 185.245 433.128 185.366C434.251 186.38 434.687 187.758 435.269 189.075L435.248 189.136L435.31 189.197C435.684 189.683 435.892 190.271 436.121 190.838V190.818C436.619 191.426 436.889 192.155 437.139 192.865L437.118 192.844C437.596 193.371 437.783 194.04 437.97 194.688C437.949 194.851 437.949 194.992 438.115 195.073C438.676 195.479 438.863 196.066 439.009 196.695V196.674C439.383 197.201 439.674 197.748 439.84 198.377C439.798 198.518 439.819 198.66 439.985 198.741C440.525 199.187 440.671 199.815 440.879 200.403C440.837 200.545 440.858 200.687 441.024 200.748C441.627 201.214 441.689 201.923 441.938 202.571V202.551C442.333 203.058 442.603 203.625 442.769 204.233C442.728 204.375 442.749 204.517 442.915 204.578C443.559 205.044 443.642 205.834 443.975 206.462C444.515 207.496 445.076 208.529 445.491 209.624V209.603C445.969 210.232 446.322 210.941 446.53 211.691C446.509 211.833 446.509 211.974 446.676 212.035C447.465 212.947 447.756 214.102 448.317 215.116C449.211 216.696 449.959 218.358 450.769 219.979C452.016 222.512 453.449 224.964 454.447 227.639V227.619C454.987 228.207 455.153 228.957 455.506 229.646C456.046 230.476 455.943 230.862 455.111 231.044C452.535 231.571 449.938 231.773 447.382 230.862C446.8 230.659 446.239 230.436 445.782 230.01L445.803 230.031C444.826 229.646 444.162 228.936 443.704 228.004V228.024C443.164 227.518 442.936 226.869 442.645 226.221C442.582 226.079 442.52 225.937 442.458 225.795C441.606 224.377 440.962 222.857 440.214 221.377C439.881 220.729 439.528 220.506 438.801 220.506C434.209 220.526 429.617 220.526 425.025 220.526C423.737 220.526 423.55 220.243 424.09 219.108C424.713 217.831 425.42 216.635 426.542 215.663C427.809 214.548 429.243 213.981 430.926 213.96C432.484 213.94 434.043 213.94 435.58 213.96C436.287 213.981 436.432 213.778 436.141 213.15C435.518 211.731 434.728 210.394 434.064 208.996C433.669 208.185 433.253 207.374 432.921 206.523L432.941 206.543C432.048 204.882 431.196 203.2 430.344 201.518C430.199 201.234 430.157 200.768 429.762 200.768C429.368 200.768 429.368 201.254 429.181 201.518C429.014 201.761 428.994 202.105 428.703 202.288V202.268C428.391 202.977 428.163 203.706 427.685 204.314C427.435 205.429 426.75 206.381 426.251 207.395C425.212 209.543 424.152 211.671 423.155 213.819C423.093 213.96 423.01 214.123 422.843 214.224L422.864 214.204C422.324 215.683 421.805 217.02 420.953 218.216Z" fill="black"></path><path d="M394.147 193.698C394.002 193.779 393.981 193.9 394.002 194.042C393.773 194.691 393.628 195.38 393.15 195.927L393.171 195.907C392.215 198.176 391.218 200.426 390.054 202.614L390.075 202.594C389.576 203.769 389.119 204.985 388.413 206.059V206.039C388.122 206.647 388.101 207.397 387.519 207.863C387.374 207.944 387.332 208.066 387.374 208.207C386.667 210.274 385.67 212.22 384.652 214.145L384.673 214.125C384.402 215.077 383.883 215.928 383.426 216.78L383.447 216.759C383.218 217.408 382.969 218.016 382.595 218.603L382.616 218.583C382.408 219.171 382.221 219.779 381.743 220.225C381.577 220.306 381.556 220.447 381.577 220.589C380.891 222.697 379.769 224.642 378.855 226.649C378.605 227.216 378.564 227.905 377.982 228.31C377.795 228.533 377.629 228.756 377.629 229.06C377.421 230.175 376.569 230.884 375.696 231.431C374.741 232.019 373.639 231.35 372.891 229.931V229.952C371.998 228.857 371.562 227.54 371.042 226.264L371.063 226.284C370.627 225.575 370.253 224.865 369.962 224.095C369.899 223.953 369.837 223.811 369.775 223.69C369.297 223.001 369.089 222.19 368.736 221.44V221.461C368.216 220.245 367.406 219.151 367.053 217.854C366.991 217.712 366.928 217.57 366.866 217.408C365.848 215.726 365.183 213.882 364.393 212.098L364.414 212.119C363.957 211.247 363.417 210.416 363.147 209.464L363.167 209.484C362.336 208.045 361.692 206.546 361.069 205.026V205.046C360.57 204.539 360.466 203.85 360.238 203.202V203.222C359.24 201.5 358.492 199.676 357.661 197.872C357.246 196.96 356.664 196.129 356.456 195.137C356.02 194.508 355.708 193.799 355.438 193.069L355.417 193.11C354.898 192.624 354.939 191.874 354.545 191.327C354.482 191.185 354.42 191.043 354.358 190.901C353.464 189.381 352.903 187.72 352.072 186.179C351.76 185.592 351.864 185.085 352.675 184.903C354.503 184.497 356.332 184.274 358.243 184.599C359.469 184.801 360.674 185.004 361.755 185.612C362.752 186.159 363.645 186.868 364.102 187.942C364.227 188.125 364.331 188.327 364.456 188.51C365.121 189.118 365.204 189.989 365.557 190.739V190.719C366.326 192.077 366.887 193.536 367.448 194.974C367.946 195.501 368.009 196.211 368.279 196.839C368.258 197.001 368.258 197.143 368.424 197.224C368.923 197.589 368.902 198.176 369.11 198.683C369.089 198.845 369.089 198.987 369.255 199.048C369.92 199.676 370.107 200.568 370.46 201.358C371.582 203.79 372.684 206.242 373.743 208.714C374.2 209.768 374.699 210.781 375.115 211.855C375.073 211.916 375.094 211.956 375.156 211.997C375.53 212.504 375.759 213.091 375.946 213.699C375.904 213.841 375.925 213.983 376.091 214.044C376.154 214.064 376.216 214.105 376.257 214.145C376.548 214.348 376.32 214.956 376.756 214.915C377.192 214.875 377.296 214.348 377.442 214.003C377.712 213.395 377.816 212.727 378.273 212.22V212.24C378.543 211.47 378.792 210.659 379.312 209.991C379.665 209.18 379.852 208.309 380.371 207.559L380.351 207.579C380.621 206.951 380.725 206.282 381.182 205.735V205.755C381.493 204.985 381.66 204.175 382.221 203.526V203.546C382.657 202.047 383.405 200.689 384.008 199.271C384.839 197.366 385.67 195.44 386.543 193.556C387.041 192.482 387.54 191.428 388.039 190.354C388.101 190.212 388.163 190.091 388.226 189.949C388.516 189.239 388.745 188.51 389.285 187.922C390.22 186.038 391.695 185.004 393.836 184.599C394.895 184.396 395.851 184.619 396.828 184.68C398.053 184.761 398.303 185.308 397.721 186.342C397.513 186.706 397.472 187.193 397.035 187.416C396.973 187.537 396.931 187.679 396.869 187.801C396.848 188.145 396.62 188.409 396.599 188.753C396.163 189.665 395.789 190.617 395.248 191.489V191.469C394.874 192.218 394.791 193.09 394.147 193.698Z" fill="black"></path><path d="M271.788 199.37C271.622 199.451 271.622 199.593 271.643 199.755C271.31 200.626 271.352 201.619 270.791 202.43L270.812 202.41C270.188 205.693 270.001 208.976 270.521 212.299C270.77 213.941 271.186 215.562 271.975 217.061C272.183 217.446 272.308 217.872 272.474 218.277V218.257C273.097 219.25 273.97 220.081 274.572 221.094C274.593 221.317 274.759 221.418 274.946 221.52C275.424 221.702 275.736 222.168 276.214 222.371C278.167 223.972 280.536 224.6 282.946 224.904C284.4 225.086 285.959 225.147 287.455 224.762C288.514 224.721 289.553 224.397 290.613 224.336L290.592 224.296C291.361 223.607 292.462 223.607 293.314 223.121C294.29 222.452 295.392 221.925 296.264 221.114C296.618 220.79 296.867 221.013 297.075 221.357C297.366 221.844 297.262 222.411 297.428 222.918L297.407 222.898C297.615 223.506 297.594 224.114 297.428 224.721C296.784 224.458 297.324 223.891 297.096 223.526C297.075 223.384 297.012 223.485 297.033 223.506C297.262 223.891 296.95 224.357 297.241 224.742C297.407 225.532 297.033 226.16 296.555 226.728L296.576 226.707C296.327 227.214 295.89 227.579 295.475 227.944C295.309 228.004 295.184 228.106 295.122 228.288C294.644 228.896 293.916 229.2 293.397 229.747C292.981 229.828 292.607 230.011 292.233 230.193C291.506 230.517 290.841 230.943 290.073 231.186C288.223 231.855 286.291 231.976 284.359 232.118C282.052 232.463 279.808 232.037 277.544 231.672C277.107 231.612 276.671 231.49 276.255 231.409C273.741 230.74 271.414 229.727 269.295 228.248C268.9 227.964 268.568 227.619 268.194 227.315C267.778 227.072 267.529 226.606 267.051 226.444C265.825 225.046 264.453 223.769 263.622 222.067L263.643 222.087C263.207 221.52 262.77 220.952 262.583 220.243L262.604 220.263C262.106 219.919 262.23 219.311 261.939 218.885C261.877 218.743 261.815 218.601 261.752 218.46C261.254 217.467 261.004 216.393 260.713 215.339L260.755 215.278L260.672 215.197C260.173 214.265 260.069 213.191 259.965 212.198C259.778 210.313 259.508 208.408 259.716 206.503C259.924 204.659 259.924 202.775 260.651 201.011L260.693 200.951L260.651 200.89C261.067 199.228 261.586 197.627 262.521 196.168V196.188C262.791 195.358 263.248 194.628 263.789 193.959V193.98C264.163 193.108 264.807 192.419 265.492 191.75L265.472 191.771C266.49 190.312 267.882 189.197 269.336 188.184C270.271 187.535 271.186 186.806 272.328 186.482C274.094 185.549 275.923 184.8 277.938 184.658C278.52 184.273 279.247 184.333 279.891 184.252C282.883 183.888 285.875 183.888 288.847 184.455C289.865 184.658 290.945 184.84 291.818 185.468C292.711 185.752 293.501 186.218 294.103 186.948C294.166 187.11 294.27 187.231 294.457 187.292C296.098 188.528 296.555 191.507 295.766 192.926V192.906C295.516 193.777 295.329 193.838 294.623 193.372C292.732 192.176 290.654 191.548 288.41 191.244C287.538 191.122 286.665 191.021 285.792 191.001C283.964 190.92 282.177 191.142 280.452 191.69C279.393 191.771 278.499 192.196 277.71 192.865C276.65 193.432 275.798 194.304 274.78 194.932C274.635 194.952 274.593 195.013 274.614 195.155C274.074 196.087 273.243 196.837 272.723 197.769V197.749C272.411 198.316 272.328 198.965 271.788 199.37Z" fill="black"></path><path d="M312.389 223.506C312.41 223.445 312.41 223.384 312.389 223.323C312.514 223.1 312.514 222.837 312.68 222.634C312.701 212.522 312.68 202.41 312.659 192.298C312.597 192.156 312.514 192.379 312.618 192.318C312.659 192.298 312.68 192.318 312.68 192.399C312.68 202.43 312.68 212.441 312.68 222.472C312.68 222.533 312.659 222.614 312.639 222.675C312.265 222.817 312.244 222.533 312.202 222.31C312.14 221.986 312.182 221.641 312.182 221.297C312.182 211.894 312.182 202.491 312.182 193.088C312.182 191.811 312.182 191.791 310.893 191.811C308.234 191.832 305.574 191.69 302.935 192.014C301.668 192.176 300.442 192.5 299.216 192.743C298.281 192.926 298.157 192.885 298.177 191.973C298.219 190.778 298.281 189.562 298.884 188.468C298.946 188.326 299.029 188.184 299.092 188.022C300.047 186.016 301.73 185.023 303.891 184.941C312.161 184.617 320.451 184.739 328.721 184.719C329.635 184.719 330.487 185.002 331.38 185.043C331.941 185.124 332.336 185.59 332.876 185.732C333.167 185.732 333.396 185.833 333.541 186.076L333.52 186.056C334.185 186.218 334.559 186.664 334.788 187.252C335.536 187.9 335.702 188.792 335.827 189.683V189.663C336.388 190.535 336.097 191.487 336.138 192.419C336.159 192.825 335.806 192.946 335.494 192.825C334.455 192.5 333.354 192.48 332.336 192.054L332.357 192.095C329.136 191.69 325.874 191.832 322.633 191.811C322.176 191.811 322.01 191.973 322.03 192.399C322.093 193.838 322.051 195.297 322.093 196.736C322.134 198.337 322.134 199.958 322.134 201.559C322.155 211.043 322.155 220.506 322.155 229.99C322.155 230.335 322.176 230.659 322.113 231.004C322.051 231.389 321.843 231.652 321.428 231.591C318.997 231.308 316.587 230.923 314.717 229.139C313.304 227.782 312.618 226.1 312.493 224.195C312.472 223.951 312.556 223.708 312.389 223.506Z" fill="black"></path><path d="M340.46 227.945C339.961 226.77 339.442 225.574 339.213 224.298C339.193 223.446 339.13 222.616 339.13 221.764C339.13 210.295 339.13 198.805 339.13 187.335C339.13 185.025 339.13 185.025 341.541 185.025C343.556 185.025 345.551 185.045 347.566 185.004C348.252 184.984 348.543 185.126 348.543 185.876C348.522 200.73 348.522 215.584 348.543 230.438C348.543 231.188 348.293 231.309 347.587 231.248C344.782 231.025 342.268 230.195 340.46 227.945Z" fill="black"></path><path d="M264.537 230.111C263.747 228.753 263.166 227.274 262.335 225.936L262.272 225.896L262.293 225.815C262.148 225.511 262.064 225.207 261.857 224.943L261.877 224.964C261.753 224.518 261.587 224.072 261.275 223.728C260.818 222.431 260.132 221.255 259.467 220.06C259.072 219.33 259.01 218.438 258.304 217.871C258.137 217.79 258.137 217.668 258.158 217.527C257.68 216.149 257.015 214.852 256.267 213.615L256.288 213.636C256.08 213.048 255.914 212.44 255.395 211.994C255.249 211.913 255.229 211.792 255.249 211.65C255.104 211.184 255 210.697 254.584 210.373C254.418 210.292 254.418 210.15 254.439 210.008C253.94 208.651 253.317 207.354 252.548 206.117L252.569 206.138C252.32 205.57 252.216 204.922 251.676 204.517C251.509 204.436 251.509 204.314 251.53 204.172C250.824 202.247 249.889 200.403 248.829 198.64V198.66C248.6 198.093 248.393 197.525 248.019 197.019C247.686 196.33 247.416 195.641 247.001 194.992L246.938 194.952L246.959 194.871C246.169 192.804 245.006 190.919 244.029 188.933L244.05 188.953C243.531 187.636 242.907 186.38 241.952 185.285L241.972 185.306C241.827 184.921 241.494 184.779 241.141 184.698C240.206 184.292 239.417 184.617 238.669 185.67L237.006 188.467L236.632 189.237C236.57 189.359 236.529 189.48 236.466 189.602L235.739 190.959C235.573 191.284 235.406 191.608 235.24 191.932L233.038 196.37C232.996 196.451 232.955 196.532 232.913 196.613C232.892 196.674 232.851 196.735 232.83 196.816L228.82 204.861C228.778 204.922 228.758 204.983 228.716 205.043L228.612 205.266C228.591 205.327 228.55 205.388 228.529 205.469L227.843 206.847C227.823 206.888 227.802 206.928 227.781 206.969L226.825 208.894C226.804 208.934 226.784 208.975 226.763 209.036L221.298 220.039C221.298 220.039 221.298 220.06 221.278 220.06L220.883 220.85C220.883 220.87 220.862 220.87 220.862 220.89L216 230.638C216.042 230.678 216.042 230.739 216 230.78C217.351 232.056 219.075 231.833 220.571 231.448C223.251 230.759 225.018 228.895 225.932 226.321C226.202 226.099 226.243 225.754 226.41 225.47C227.282 223.91 227.781 222.147 228.82 220.647C229.298 220.485 229.776 220.546 230.254 220.546C234.368 220.546 238.482 220.546 242.596 220.546C242.949 220.546 243.281 220.546 243.635 220.526C244.258 220.465 244.486 220.161 244.32 219.573C244.175 219.026 243.842 218.52 243.697 217.972C242.658 215.723 240.788 214.568 238.357 214.203C236.674 213.96 234.97 214.122 233.287 214.102C232.435 214.082 232.207 214.082 232.248 213.636H232.29L235.261 207.232L238.128 201.315C238.274 201.051 238.274 200.484 238.876 200.808C239.105 201.376 239.292 201.963 239.687 202.429C239.998 203.017 240.082 203.706 240.539 204.233C241.307 206.219 242.429 208.043 243.302 209.968C244.424 212.42 245.692 214.791 246.876 217.202C247.645 218.763 248.393 220.364 249.286 221.863L249.265 221.843C249.369 222.268 249.535 222.654 249.743 223.039C250.367 224.214 250.969 225.389 251.509 226.585C251.738 226.828 251.883 227.112 251.987 227.436C252.507 228.348 253.005 229.28 254.023 229.766C254.273 230.091 254.605 230.334 254.958 230.516C257.888 232.016 260.963 231.833 264.08 231.185C264.682 231.063 264.849 230.638 264.537 230.111Z" fill="black"></path></svg> 