<?xml version="1.0" encoding="UTF-8"?> <svg xmlns="http://www.w3.org/2000/svg" width="672" height="417" viewBox="0 0 672 417" fill="none"><rect width="672" height="417" fill="white"></rect><path fill-rule="evenodd" clip-rule="evenodd" d="M374.185 224.378C384.679 220.115 388.39 214.723 388.39 203.938C388.39 190.771 382.759 184.376 368.426 184.376C356.139 184.376 349.101 191.147 349.101 203.437C349.101 214.472 353.068 221.369 361.131 224.128C364.074 225.131 367.402 224.128 373.545 227.639C382.887 232.906 382.887 233.031 385.191 233.031C386.599 233.031 387.239 232.529 387.239 231.777C387.239 230.398 384.551 231.777 381.352 227.89C380.2 226.51 378.152 225.382 374.697 224.629L374.185 224.378ZM368.682 187.135C377.512 187.135 382.119 193.405 382.119 204.565C382.119 215.977 378.024 222.247 368.809 222.247C360.491 222.247 355.244 216.102 355.244 204.565C355.116 193.53 360.363 187.135 368.682 187.135Z" fill="black"></path><path fill-rule="evenodd" clip-rule="evenodd" d="M248.251 185.129C243.26 184.502 239.292 184 234.301 184C222.399 184 216 190.897 216 203.938C216 217.858 223.679 225.005 237.245 225.005C241.212 225.005 244.795 224.504 246.459 223.501C248.507 222.372 249.531 218.61 249.531 218.234C249.531 217.607 249.403 217.481 249.275 217.481C248.763 217.481 244.284 222.121 237.501 222.121C228.542 221.996 223.167 215.35 223.167 204.064C223.167 193.029 228.286 187.01 237.757 187.01C245.819 187.01 247.483 190.145 248.379 190.145C248.635 190.145 248.763 190.019 248.763 189.894C248.763 189.392 248.251 187.01 248.251 185.63V185.129Z" fill="black"></path><path fill-rule="evenodd" clip-rule="evenodd" d="M295.731 185.127C297.267 191.899 297.523 193.153 297.523 205.693C297.523 213.342 297.395 219.988 297.139 225.004V225.506H303.154C300.85 222.622 300.722 222.245 300.722 219.11L301.49 193.655L325.294 225.506H328.878L328.366 185.127H322.991C325.038 187.761 325.166 187.886 325.294 191.397L324.142 213.217L303.154 185.127H295.731Z" fill="black"></path><path fill-rule="evenodd" clip-rule="evenodd" d="M393.124 185.127C394.276 198.42 394.276 198.42 394.276 202.558C394.276 206.194 394.148 208.702 394.148 211.336C394.148 222.12 397.859 226.509 409.249 226.509C422.175 226.509 424.607 222.12 424.607 210.333V185.127H418.976C420.128 187.51 420.896 188.889 420.896 191.272L420.512 205.442C420.512 222.12 417.824 223.499 410.145 223.499C400.419 223.499 400.419 217.731 400.419 205.191C400.419 201.429 400.803 191.272 401.443 185.378V185.127H393.124Z" fill="black"></path><path fill-rule="evenodd" clip-rule="evenodd" d="M429.854 185.128C431.006 194.658 431.134 197.166 431.134 205.944C431.134 210.835 431.134 210.835 429.982 224.879V225.256C435.102 224.754 438.173 224.629 440.733 224.629C445.34 224.629 448.028 225.256 450.459 225.256C453.787 225.256 455.195 224.378 455.195 219.613V219.236C453.531 221.117 451.867 222.246 448.924 222.246C445.596 222.246 441.245 221.619 437.277 220.867L436.765 220.741L437.277 205.819H453.403C453.275 204.941 453.275 204.69 453.275 204.188C453.275 203.687 453.275 203.436 453.403 202.809L453.531 202.433H437.405V189.14C443.036 188.764 449.563 188.137 451.355 188.137C452.507 188.137 452.507 188.263 454.683 190.018L454.811 190.144L454.171 185.002H429.854V185.128Z" fill="black"></path><path fill-rule="evenodd" clip-rule="evenodd" d="M253.497 185.127C254.265 192.024 254.777 197.166 254.777 209.831C254.777 214.596 254.649 218.484 254.265 225.255V225.632C258.488 225.381 260.792 225.13 263.607 225.13C268.087 225.13 268.343 225.506 271.798 225.506C274.486 225.506 275.894 224.754 276.149 224.503C276.277 224.378 277.941 221.87 277.941 219.989C277.941 219.362 277.685 219.236 277.429 219.236C276.789 219.236 275.638 222.371 271.798 222.371C268.599 222.371 266.679 221.493 261.816 221.493H261.304C261.304 203.812 261.304 194.658 261.816 185.378V185.127H253.497Z" fill="black"></path><path fill-rule="evenodd" clip-rule="evenodd" d="M281.143 185.127C281.911 195.661 282.167 199.298 282.167 207.574C282.167 214.596 282.039 216.603 281.655 225.255V225.632H288.822C288.438 217.857 288.31 212.841 288.31 204.188C288.31 201.555 288.31 201.555 288.822 185.504V185.127H281.143Z" fill="black"></path><path fill-rule="evenodd" clip-rule="evenodd" d="M336.814 185.127C337.582 194.909 337.838 199.423 337.838 207.323C337.838 214.346 337.71 220.866 337.326 225.255V225.632H344.493C344.237 217.731 343.981 212.339 343.981 204.439C343.981 202.056 343.981 201.931 344.493 185.504V185.127H336.814Z" fill="black"></path></svg> 