<?xml version="1.0" encoding="UTF-8"?> <svg xmlns="http://www.w3.org/2000/svg" width="672" height="417" viewBox="0 0 672 417" fill="none"><rect width="672" height="417" fill="white"></rect><path fill-rule="evenodd" clip-rule="evenodd" d="M278.124 185.19L275.764 185.057L274.753 184.859L274.551 184.463C274.551 184.132 274.82 184 275.292 184H299.966C311.561 184 319.651 187.437 324.37 194.376C327.067 198.407 328.415 203.166 328.415 208.651C328.415 211.493 327.943 214.269 327.067 216.978C326.055 219.82 324.572 222.265 322.752 224.512C320.73 226.826 318.303 228.676 315.471 229.998C312.438 231.32 309.067 232.047 305.224 232.047H273.742C273.27 232.047 273 231.848 273 231.584C273 231.254 273.337 231.121 274.079 231.121L280.079 230.791C281.022 230.659 281.696 230.394 281.966 230.064L282.573 229.205C282.775 228.61 282.91 227.751 282.91 226.561V188.23C282.91 186.71 282.034 185.784 280.348 185.454L278.124 185.19ZM291.404 185.784L291.202 186.776V229.271C291.202 229.734 291.269 230.064 291.472 230.196L292.483 230.328H295.719L303.337 230.064C305.359 229.866 307.112 229.535 308.46 229.073C309.808 228.61 311.089 227.883 312.235 227.024C313.247 226.231 314.258 225.107 315.336 223.653C317.157 221.274 318.505 218.3 319.314 214.599C319.786 212.154 320.055 209.841 320.055 207.594C320.055 205.611 319.786 203.496 319.112 201.183C318.235 197.879 316.954 194.971 315.067 192.525C311.494 187.767 305.629 185.388 297.539 185.388H292.55C291.944 185.388 291.606 185.52 291.404 185.784ZM333.336 231.65C333.269 231.386 333.538 231.254 334.078 231.254L335.83 231.187C336.774 231.055 337.314 230.725 337.583 230.262L337.92 228.544V214.533C337.92 214.004 337.718 213.608 337.381 213.343L336.1 213.211L334.347 213.674L333.404 213.608C333.269 213.343 333.673 213.079 334.482 212.815C336.505 212.286 338.325 211.625 339.875 210.766C340.819 210.237 341.493 209.973 341.763 209.841L342.437 209.775C342.707 209.841 342.774 210.303 342.774 211.163V228.808C342.774 229.667 342.976 230.262 343.314 230.593C343.785 231.055 344.797 231.254 346.415 231.254C346.954 231.254 347.291 231.386 347.358 231.65C347.358 231.848 347.156 231.914 346.886 231.914H333.741C333.471 231.981 333.336 231.848 333.336 231.65ZM391.38 214.269C390.167 215.524 389.358 216.978 388.886 218.697V228.94C388.886 229.866 389.223 230.527 389.897 230.923L391.38 231.187L392.931 231.386C393.268 231.452 393.47 231.518 393.47 231.716L393.403 231.914L392.998 232.047H379.852C379.448 232.047 379.246 231.914 379.246 231.716L379.583 231.452L381.807 231.254C382.684 231.121 383.223 230.791 383.493 230.394L383.83 229.337V214.797L383.56 213.74L383.156 213.476C383.021 213.343 382.819 213.277 382.549 213.211C382.212 213.211 381.74 213.277 381.268 213.476L379.987 213.806L379.246 213.608C379.111 213.41 379.178 213.343 379.313 213.277L380.392 212.815C382.819 212.088 384.774 211.361 386.122 210.634L387.807 209.709L388.549 209.775L388.953 210.436V215.723C390.773 212.749 392.257 210.964 393.268 210.369C393.875 210.039 394.481 209.709 394.886 209.576L395.762 209.51C396.301 209.444 396.908 209.642 397.582 210.039C398.526 210.568 398.998 211.361 399.065 212.352C399.133 213.211 398.863 213.872 398.324 214.335C397.852 214.731 397.313 214.864 396.908 214.731C396.504 214.665 396.167 214.467 395.964 214.269L395.29 213.41C394.751 212.616 394.212 212.418 393.605 212.616C392.931 212.881 392.189 213.476 391.38 214.269ZM339.943 194.442C338.999 194.442 338.325 194.772 337.651 195.367C336.977 195.962 336.639 196.755 336.707 197.614C336.707 198.473 337.044 199.2 337.718 199.795C338.325 200.39 339.066 200.72 340.01 200.72C340.887 200.72 341.628 200.39 342.235 199.795C342.842 199.2 343.179 198.473 343.179 197.614C343.179 196.689 342.842 195.962 342.235 195.367C341.561 194.772 340.819 194.442 339.943 194.442ZM353.021 213.74C353.898 212.55 355.044 211.625 356.325 210.832C357.538 210.171 358.684 209.709 359.898 209.51L364.482 209.246C366.1 209.312 367.65 209.642 369.066 210.237C372.369 211.691 374.459 214.335 375.268 218.234C376.077 222.133 375.403 225.438 373.246 228.147C371.425 230.394 368.931 231.848 365.897 232.509C362.662 233.236 359.695 232.972 356.931 231.914C353.426 230.527 351.268 227.751 350.594 223.653C349.92 219.754 350.729 216.516 353.021 213.74ZM367.448 212.616C365.965 210.964 364.077 210.237 361.785 210.436C359.56 210.634 357.875 211.89 356.796 214.137C355.785 216.185 355.448 218.763 355.785 221.737C356.055 224.711 356.999 227.09 358.549 228.874C360.167 230.791 362.055 231.584 364.145 231.187C366.302 230.791 367.92 229.601 368.999 227.685C370.01 225.702 370.414 223.125 370.145 219.886C369.807 216.714 368.931 214.269 367.448 212.616Z" fill="black"></path></svg> 