<?xml version="1.0" encoding="UTF-8"?> <svg xmlns="http://www.w3.org/2000/svg" width="672" height="417" viewBox="0 0 672 417" fill="none"><rect width="672" height="417" fill="white"></rect><g clip-path="url(#clip0)"><path d="M454.633 209.155C451.836 212.322 449.139 215.54 445.543 217.802C443.745 218.908 441.697 220.869 439.7 219.311C437.502 217.601 439.1 215.138 439.949 213.126C440.598 211.518 441.547 210.009 442.347 208.501C442.546 208.099 442.996 207.646 442.446 207.194C441.997 206.842 441.497 206.993 441.048 207.194C439.899 207.797 439.25 208.953 438.701 210.06C437.502 212.624 436.403 215.238 435.255 217.802C434.955 218.506 434.705 219.26 434.206 219.763C433.357 220.718 432.208 221.573 430.959 221.07C429.611 220.517 430.11 219.009 430.31 217.953C430.56 216.646 431.159 215.439 431.609 214.182C432.158 212.976 432.707 211.769 433.207 210.562C435.354 205.786 439.3 203.875 444.344 205.082C446.292 205.535 447.091 206.59 446.192 208.501C445.043 211.065 443.795 213.579 442.347 216.545C445.992 215.439 448.44 213.478 450.537 211.115C451.736 209.758 452.835 208.25 454.633 207.646C454.633 208.149 454.633 208.652 454.633 209.155Z" fill="black"></path><path d="M430.11 206.289C427.863 204.68 425.815 206.038 424.017 207.395C420.821 209.809 418.573 212.926 417.125 216.646C416.975 217.652 416.476 218.657 417.125 219.713C418.424 222.227 419.872 222.679 422.869 221.422C426.714 219.763 429.211 216.747 431.159 213.127C431.209 212.875 431.159 212.624 431.259 212.373C431.958 210.16 432.358 207.848 430.11 206.289ZM427.164 213.328C426.914 215.138 425.865 217.149 423.768 218.406C422.469 219.21 421.67 218.758 421.67 217.249C421.67 214.484 423.068 212.373 425.016 210.563C425.466 210.16 426.015 209.909 426.564 210.362C427.214 211.015 427.214 211.87 427.164 213.328Z" fill="black"></path><path d="M365.733 201.314C365.733 201.314 365.785 201.314 365.733 201.314C365.733 201.262 365.785 201.262 365.785 201.211L365.733 201.314Z" fill="black"></path><path d="M417.974 176.374C409.134 178.486 402.642 190.251 405.588 198.948C406.937 202.87 408.585 206.741 409.883 210.663C411.781 216.294 411.182 221.674 407.636 226.601C402.242 234.042 393.152 236.857 383.613 233.74C378.369 232.031 373.924 229.215 371.826 223.735C368.88 215.942 374.374 206.44 382.964 204.077C389.057 202.418 395.5 205.585 397.897 211.417C399.545 215.389 398.446 219.21 394.95 221.875C391.804 224.238 387.858 224.187 384.612 221.623C382.215 219.763 382.414 217.249 385.111 215.842C386.21 215.238 387.409 214.886 388.707 214.333C387.259 213.579 385.96 213.529 384.612 213.529C380.067 213.529 377.62 217.048 379.268 221.322C380.317 224.087 382.414 225.796 385.161 226.651C392.403 228.964 401.942 222.981 403.241 215.389C404.34 208.752 401.892 203.976 396.249 201.865C387.259 198.496 375.772 201.814 370.078 209.507C368.73 211.317 367.581 213.227 366.333 215.138C365.833 215.892 365.184 216.344 364.235 215.992C363.436 215.691 363.086 215.037 363.086 214.233C363.136 209.758 364.485 205.836 367.931 202.87C368.78 202.166 370.328 200.758 371.277 203.071C371.527 203.674 372.076 203.574 372.576 203.473C373.874 203.121 374.973 202.468 375.023 201.01C375.073 199.351 373.774 199.049 372.476 198.848C369.879 198.446 367.981 200.055 365.883 201.161L365.833 201.211L365.883 201.261C365.833 201.261 365.833 201.261 365.783 201.261C364.435 203.473 362.487 205.233 361.338 207.847C360.389 204.831 361.388 202.669 363.985 201.714C365.084 201.11 366.433 199.451 366.433 199.451C368.031 197.44 368.43 195.228 367.132 192.915C366.183 191.206 364.635 190.452 362.737 190.703C359.99 191.105 357.592 192.111 356.694 195.127C356.244 196.585 356.344 198.094 356.194 199.602C356.094 200.658 356.044 201.865 354.896 202.367C351.2 204.026 349.352 207.194 347.654 210.613C346.405 213.227 345.057 215.791 341.91 218.003C342.959 215.992 343.658 214.635 344.357 213.277C345.556 210.814 346.954 208.451 347.404 205.686C347.554 204.73 347.704 203.725 346.655 203.323C345.556 202.87 344.507 203.172 343.858 204.278C343.508 204.831 343.209 205.434 342.909 206.038C340.861 209.959 339.013 213.981 336.316 217.501C335.567 218.456 334.918 219.713 333.07 219.612C335.018 214.836 336.866 210.311 338.764 205.585C335.617 205.334 333.669 206.842 332.471 209.306C331.422 211.467 330.673 213.78 329.674 215.992C328.775 217.903 327.826 219.813 325.079 220.718C328.975 210.462 333.17 200.859 337.315 191.055C334.219 190.602 332.571 192.262 331.222 194.373C329.125 197.641 327.976 201.311 326.727 204.931C325.279 209.004 324.03 213.177 321.783 216.948C320.085 219.813 319.136 220.718 316.888 221.422C317.138 220.769 317.388 220.165 317.638 219.562C321.134 210.914 325.229 202.518 329.025 194.021C329.274 193.418 330.173 192.714 329.474 192.061C328.925 191.507 328.026 191.91 327.327 192.161C325.129 192.915 323.93 194.725 322.882 196.686C320.884 200.356 319.735 204.378 318.287 208.3C316.789 212.523 315.39 216.847 312.493 220.417C311.445 221.774 310.246 222.931 307.899 223.534C308.997 221.171 309.846 219.26 310.695 217.4C311.544 215.49 312.593 213.68 312.893 211.568C312.993 211.065 313.292 210.11 312.443 210.21C309.097 210.512 305.401 209.255 302.455 211.417C297.86 214.836 294.514 219.16 295.263 225.344C295.762 229.366 293.515 231.628 290.768 233.64C289.17 234.846 287.921 234.142 287.721 232.081C287.422 229.165 288.371 226.5 289.669 223.936C291.767 219.663 293.565 215.288 295.313 210.864C298.309 203.373 301.306 195.831 305.701 189.044C309.996 182.407 315.74 177.933 323.781 177.128C330.673 176.424 337.565 176.977 344.407 177.882C353.247 179.039 361.738 181.603 370.078 184.62C370.678 184.921 371.177 185.022 371.127 184.066C370.278 183.111 369.179 182.558 368.081 181.955C361.538 178.084 354.296 175.771 346.855 174.011C343.508 173.257 340.162 172.654 336.816 172C332.321 172 327.826 172 323.331 172C321.333 172.553 319.286 172.452 317.238 173.056C310.546 175.067 306.35 179.843 302.904 185.575C299.708 190.904 297.211 196.535 294.414 202.066C292.316 206.188 289.919 210.11 286.922 213.629C284.575 216.344 281.728 218.355 278.182 219.11C277.533 219.26 276.384 219.612 276.834 218.205C277.783 214.987 278.981 211.87 280.479 208.3C280.779 209.557 280.28 210.361 280.979 210.764C281.728 211.216 282.427 210.663 283.027 210.261C283.876 209.708 284.475 208.903 285.074 208.099C286.573 205.937 286.223 204.68 283.676 204.127C282.277 203.825 281.778 203.373 282.327 201.965C285.024 194.876 288.321 188.139 294.214 183.111C295.213 182.257 296.212 181.352 295.263 179.944C294.314 178.536 293.065 179.089 291.967 179.743C289.719 181.05 287.322 181.502 284.775 181.452C280.929 181.402 277.133 181.502 273.288 181.402C270.74 181.352 268.293 181.754 265.896 182.407C257.555 184.77 255.108 190.552 254.359 198.395C254.259 199.401 254.659 200.356 255.108 201.261C255.707 202.518 256.706 203.071 258.105 203.021C264.148 202.82 270.99 197.943 273.188 192.161C273.537 191.206 274.336 189.848 273.238 189.195C272.189 188.591 271.639 189.999 270.99 190.703C268.593 193.267 266.096 195.731 262.849 197.239C261.95 197.641 260.952 198.194 260.053 197.34C259.303 196.636 259.503 195.63 259.703 194.725C260.752 190.2 263.549 187.435 267.994 186.329C272.888 185.122 277.733 185.726 282.627 186.329C283.726 186.48 284.375 186.983 283.726 188.189C281.229 192.815 279.281 197.742 276.684 202.317C275.985 203.574 275.036 204.328 273.687 204.73C271.44 205.384 269.392 206.49 267.494 207.948C262.45 211.92 261.801 216.948 265.996 221.774C267.394 223.383 267.095 224.389 265.996 225.847C261.601 231.528 255.957 235.45 249.265 237.561C243.022 239.522 236.829 239.371 230.935 235.952C226.191 233.187 224.143 228.863 225.741 223.634C227.839 216.596 232.534 211.819 239.376 209.356C242.273 208.3 245.369 208.149 248.216 210.16C253.909 214.132 252.511 223.735 246.718 226.299C244.57 227.254 242.173 227.204 241.424 225.947C240.575 224.489 241.474 223.031 244.071 221.573C244.72 221.221 245.619 221.07 245.569 220.115C245.519 219.11 244.67 218.758 243.871 218.456C241.224 217.45 238.926 218.305 236.929 220.014C235.031 221.724 233.383 223.634 234.132 226.551C234.881 229.416 236.829 231.075 239.676 231.679C240.824 231.93 242.023 231.88 243.172 231.679C250.064 230.623 256.307 224.841 258.055 218.104C260.452 208.803 254.259 204.63 247.667 203.926C234.032 202.568 218.999 215.188 218 227.204C218 229.366 218 231.578 218 233.74C220.198 240.125 225.042 243.092 231.335 244.198C235.98 245.002 240.575 244.801 245.219 244.097C256.956 242.237 265.596 235.6 272.489 226.299C273.238 225.294 273.937 224.741 275.285 224.59C278.532 224.288 281.678 223.484 284.525 221.824C285.124 221.473 285.724 220.266 286.573 221.221C287.172 221.925 286.273 222.528 286.023 223.132C284.475 226.701 282.427 230.17 282.477 234.243C282.477 236.958 283.976 238.366 286.673 238.416C291.117 238.466 294.913 235.349 296.112 230.321C296.561 228.36 296.761 226.902 299.358 227.757C300.557 228.159 301.706 227.204 302.804 226.651C306.101 225.042 309.896 226.249 313.243 224.791C313.292 224.741 313.392 224.841 313.492 224.841C315.54 225.545 317.538 225.545 319.485 224.489C319.885 224.288 320.285 223.886 320.834 224.238C322.832 225.545 324.829 224.69 326.428 223.634C328.276 222.428 329.774 222.78 331.522 223.634C329.674 225.143 327.876 226.5 326.228 228.009C324.28 229.819 322.282 231.628 321.283 234.193C320.684 235.6 320.684 236.958 321.783 238.164C322.882 239.321 324.18 239.572 325.678 239.12C327.826 238.516 329.574 237.259 331.222 235.852C334.668 232.835 337.066 229.014 338.914 224.891C339.363 223.936 339.663 222.88 340.811 222.378C343.209 221.322 345.206 219.713 347.054 217.903C348.003 216.998 348.453 216.998 349.402 217.953C351.25 219.763 353.697 220.568 356.044 219.562C358.691 218.456 360.889 217.45 363.935 218.607C365.534 219.21 365.833 219.512 365.833 221.02C365.783 228.712 369.529 234.394 376.921 236.757C388.008 240.326 398.396 238.416 407.936 231.83C412.181 228.914 415.078 224.891 416.276 219.763C416.926 218.808 417.525 217.853 416.776 216.696C416.826 211.719 415.377 207.194 412.98 202.87C411.382 199.954 409.684 197.088 408.685 193.87C407.486 190.049 407.686 186.53 410.882 183.815C414.179 181 418.024 180.899 421.87 182.558C424.367 183.614 425.516 185.927 425.316 188.893C425.116 191.407 424.217 193.468 421.67 194.323C420.472 194.725 419.123 194.977 418.224 193.82C417.225 192.513 418.324 191.457 419.023 190.502C420.172 188.943 419.972 188.139 418.074 187.737C416.526 187.385 415.277 187.888 414.378 189.195C412.93 191.306 412.68 193.569 413.829 195.831C415.028 198.043 417.125 198.446 419.423 198.144C424.217 197.49 428.712 192.965 429.711 187.787C431.11 180.648 424.917 174.665 417.974 176.374ZM271.49 217.802C270.84 219.461 270.091 219.009 269.192 218.154C267.145 216.193 267.194 213.328 269.342 211.367C270.94 209.909 272.838 208.954 275.435 208.3C273.987 211.719 272.638 214.735 271.49 217.802ZM307.149 215.238C305.501 218.355 303.004 221.02 302.255 224.64C301.106 224.087 300.607 223.031 300.707 221.975C301.106 218.556 303.004 215.842 305.351 213.478C305.901 212.925 306.8 212.875 307.449 213.328C308.348 213.981 307.449 214.685 307.149 215.238ZM326.927 234.846C325.928 234.997 325.279 234.796 325.928 233.74C327.726 230.925 330.273 228.763 332.721 226.551C333.27 226.048 333.669 226.601 333.719 227.154C333.57 229.919 329.424 234.494 326.927 234.846ZM357.842 213.076C357.742 215.439 356.594 216.445 354.346 216.093C352.298 215.791 351.35 214.534 351.849 212.322C352.498 209.406 353.997 206.993 356.644 204.881C357.193 207.847 357.942 210.412 357.842 213.076ZM359.79 198.546C359.69 196.384 360.989 194.675 362.787 194.574C363.536 194.625 364.335 194.826 364.435 195.882C364.585 196.887 361.588 200.004 360.489 200.004C359.39 200.004 359.84 199.099 359.79 198.546Z" fill="black"></path></g><defs><clipPath id="clip0"><rect width="236.633" height="72.7005" fill="white" transform="translate(218 172)"></rect></clipPath></defs></svg> 