<?xml version="1.0" encoding="UTF-8"?> <svg xmlns="http://www.w3.org/2000/svg" width="672" height="417" viewBox="0 0 672 417" fill="none"><rect width="672" height="417" fill="white"></rect><path fill-rule="evenodd" clip-rule="evenodd" d="M348.75 149.62C344.701 147.786 340.39 147 335.949 147C331.639 147 327.328 147.786 323.148 149.62C319.229 151.191 315.833 153.68 312.829 156.692C309.824 159.705 307.473 163.241 305.775 167.301C304.077 171.361 303.163 175.684 303.163 180.268C303.163 184.721 304.077 189.043 305.775 193.103C307.473 197.033 309.824 200.569 312.829 203.712C315.833 206.725 319.229 209.082 323.148 210.785C327.197 212.488 331.508 213.405 335.949 213.405C340.39 213.405 344.701 212.488 348.75 210.785C352.669 209.213 356.065 206.725 359.2 203.712C362.204 200.7 364.556 197.033 366.123 193.103C367.821 189.043 368.736 184.721 368.736 180.268C368.736 175.684 367.821 171.361 366.123 167.301C364.556 163.241 362.074 159.836 359.2 156.692C356.065 153.68 352.669 151.191 348.75 149.62ZM335.949 148.834C340.129 148.834 344.309 149.62 347.966 151.322C351.624 152.894 355.02 155.251 357.763 158.133C360.637 161.014 362.858 164.289 364.425 168.087C365.992 172.016 366.907 175.946 366.907 180.268C366.907 184.459 365.992 188.519 364.425 192.448C362.858 196.116 360.637 199.521 357.763 202.403C354.889 205.284 351.624 207.511 347.966 209.082C344.178 210.654 340.129 211.571 335.949 211.571C331.769 211.571 327.72 210.785 323.932 209.082C320.274 207.511 317.009 205.284 314.135 202.403C311.261 199.521 309.041 196.116 307.473 192.448C305.906 188.519 304.991 184.459 304.991 180.268C304.991 175.946 305.775 171.885 307.473 168.087C309.041 164.289 311.261 161.014 314.135 158.133C317.009 155.251 320.274 152.894 323.932 151.322C327.72 149.62 331.769 148.834 335.949 148.834Z" fill="black"></path><path fill-rule="evenodd" clip-rule="evenodd" d="M355.151 157.739L354.759 157.477L352.277 158.263L352.799 158.525L355.151 157.739Z" fill="black"></path><path fill-rule="evenodd" clip-rule="evenodd" d="M343.002 151.322L342.48 151.191L338.3 158.657V158.002L340.912 150.929L340.52 150.798L338.3 156.954H337.647L338.953 150.667L338.561 150.536L337.255 156.954H336.732V150.536H336.34V156.954H335.818L334.642 150.536H334.25L335.295 156.954H334.642L332.552 150.667L332.16 150.798L334.512 157.609V158.526L330.593 151.06L330.071 151.191L334.512 159.311V159.966L328.242 151.584L327.85 151.715L334.12 160.228L326.021 152.37L325.629 152.632L334.512 161.145L323.278 153.549C323.147 153.68 323.017 153.68 322.756 153.811L333.859 161.276H333.336L333.467 161.145L320.274 155.251L319.882 155.513L332.683 161.276H332.03L322.364 158.788L322.233 159.181L330.201 161.276V161.8L321.58 160.883L321.449 161.407L330.332 162.324V162.717L320.796 163.241L320.535 163.634L330.201 163.11V163.634L319.098 165.991L319.229 166.384L330.332 164.027V164.681H330.724L320.274 168.742L320.143 169.266L331.899 164.681H332.552L321.972 170.837L322.233 171.099L333.336 164.681H333.597C330.071 167.563 326.544 170.444 323.017 173.326V173.981L334.25 164.812L326.544 173.326L326.805 173.719L334.25 165.336V165.467L328.111 175.421L328.372 175.814L334.512 166.384V167.039L329.287 179.351L329.548 179.875L334.642 168.218V170.051L331.638 181.97L332.03 182.101L334.642 171.885V173.981H335.426L334.642 182.494L335.034 182.625L335.818 173.981H337.124L337.777 182.625H338.169L337.516 173.981H338.43V171.492L341.043 182.232L341.435 182.101L338.3 169.659V167.825L343.133 179.351L343.263 178.565L338.3 166.646V166.253L344.439 176.076L344.7 175.421L338.43 165.336L345.876 173.85L346.137 173.457L338.822 165.336L349.925 174.505L350.056 173.981L339.084 164.812H339.475L350.84 171.623L350.97 171.23L340.39 164.943H341.043L352.277 169.397L352.407 169.004L342.349 164.943H342.61V164.551L352.799 166.908L352.93 166.515L342.61 164.158V163.765L352.538 164.42L352.407 164.027L342.61 163.372V162.979L351.493 162.062L351.362 161.669L342.741 162.586V162.062L350.84 159.704L350.97 159.181L341.957 161.8H339.867L352.538 156.168L352.146 155.906L338.822 161.8L349.925 154.596L349.533 154.334L338.561 161.407L347.574 153.287L347.182 153.156L338.43 161.014L345.353 152.501L344.962 152.239L338.43 160.228V159.573L343.002 151.322ZM337.385 162.193H341.565V163.896H337.385V173.064H335.295V163.896H331.116V162.193H335.295V157.871H337.385V162.193Z" fill="black"></path><path fill-rule="evenodd" clip-rule="evenodd" d="M349.011 177.647L349.141 176.992L347.575 175.291V175.945L349.011 177.647Z" fill="black"></path><path fill-rule="evenodd" clip-rule="evenodd" d="M362.727 168.611L361.813 168.35V168.742L362.857 169.135L362.727 168.611Z" fill="black"></path><path fill-rule="evenodd" clip-rule="evenodd" d="M361.29 172.277L360.898 172.67L364.294 173.98L364.164 173.456L361.29 172.277Z" fill="black"></path><path fill-rule="evenodd" clip-rule="evenodd" d="M356.457 179.353L356.196 179.745H356.326L363.903 186.032L364.033 185.639L356.457 179.353Z" fill="black"></path><path fill-rule="evenodd" clip-rule="evenodd" d="M359.2 175.945L359.069 176.469L364.686 179.743V179.219L359.2 175.945Z" fill="black"></path><path fill-rule="evenodd" clip-rule="evenodd" d="M357.893 197.818L358.024 197.425L351.754 187.078L351.493 187.602L357.893 197.818Z" fill="black"></path><path fill-rule="evenodd" clip-rule="evenodd" d="M361.682 192.055L361.813 191.662L353.583 182.231L353.191 182.493L361.682 192.055Z" fill="black"></path><path fill-rule="evenodd" clip-rule="evenodd" d="M348.75 191.664L348.358 191.926L352.668 202.404L353.06 202.011L348.75 191.664Z" fill="black"></path><path fill-rule="evenodd" clip-rule="evenodd" d="M317.4 157.346L317.008 157.739L320.143 158.524C320.274 158.394 320.535 158.263 320.796 158.263L317.4 157.346Z" fill="black"></path><path fill-rule="evenodd" clip-rule="evenodd" d="M309.563 168.218L309.302 168.741L310.738 168.349V167.956L309.563 168.218Z" fill="black"></path><path fill-rule="evenodd" clip-rule="evenodd" d="M307.865 173.718V174.242L311.392 172.671L311.261 172.409L307.865 173.718Z" fill="black"></path><path fill-rule="evenodd" clip-rule="evenodd" d="M307.342 179.35V179.743L313.612 176.207V175.683L307.342 179.35Z" fill="black"></path><path fill-rule="evenodd" clip-rule="evenodd" d="M315.963 179.745L315.572 179.614L308.126 185.639L308.257 186.032L315.963 179.745Z" fill="black"></path><path fill-rule="evenodd" clip-rule="evenodd" d="M324.976 175.945V175.291L323.801 176.6L323.931 177.254L324.976 175.945Z" fill="black"></path><path fill-rule="evenodd" clip-rule="evenodd" d="M325.629 179.483L325.107 180.137L325.499 180.399L325.629 180.137V179.483Z" fill="black"></path><path fill-rule="evenodd" clip-rule="evenodd" d="M318.968 182.627L318.576 182.496L310.347 191.795L310.478 192.057L318.968 182.627Z" fill="black"></path><path fill-rule="evenodd" clip-rule="evenodd" d="M321.058 187.34L320.927 186.686L314.004 197.426L314.266 197.818L321.058 187.34Z" fill="black"></path><path fill-rule="evenodd" clip-rule="evenodd" d="M324.323 191.664L323.931 191.533L319.229 202.273L319.62 202.535L324.323 191.664Z" fill="black"></path><path fill-rule="evenodd" clip-rule="evenodd" d="M356.457 157.346L355.673 157.215C355.412 157.477 355.151 157.87 355.151 158.525C355.151 158.918 355.281 159.573 355.412 160.359L355.804 162.978C355.673 163.109 355.673 163.109 355.543 162.978C355.281 162.847 355.02 162.585 354.759 162.192C354.498 161.799 354.367 161.407 354.367 161.145C354.236 160.49 353.975 159.704 353.191 159.049C352.408 158.132 351.755 157.87 351.101 158.132C350.448 158.263 350.448 158.656 350.84 159.311L351.755 160.752C352.016 161.407 352.277 161.93 352.277 162.454C352.408 163.895 353.191 165.205 354.889 166.646L355.281 167.038C356.718 170.182 356.849 172.67 355.934 174.504C355.673 172.408 355.151 170.575 354.498 169.003L353.845 167.169C353.583 166.515 353.322 166.384 353.061 166.646C352.408 167.693 352.408 169.003 352.8 170.313L353.191 172.016C353.322 172.67 353.453 173.325 353.453 173.98L353.061 176.207C352.669 177.647 352.277 178.302 351.624 178.302C351.885 177.517 352.016 176.207 352.016 174.242L352.146 171.754L352.016 170.968C351.885 170.575 351.885 170.575 351.624 170.837C351.232 170.837 350.971 171.099 350.579 171.754C350.318 172.147 350.056 173.063 349.795 174.111L349.142 176.731C348.75 178.957 347.705 180.136 346.138 180.267L346.268 178.171C346.268 177.255 346.399 176.6 346.399 176.076L346.66 174.504C346.791 173.587 346.921 172.932 346.791 172.801H346.268L346.399 173.456C346.399 173.456 346.268 173.587 346.138 173.587C345.093 175.159 344.57 177.124 344.309 179.219C343.525 182.232 342.48 183.541 341.435 183.148C341.435 183.017 341.305 182.887 341.174 182.887C340.913 182.756 340.521 182.756 339.998 182.887H339.868L339.607 183.017L337.517 183.279C337.255 183.148 336.733 183.017 335.688 183.017L333.728 183.148C333.206 182.756 332.553 182.625 332.03 183.017H331.9C330.071 182.625 329.026 181.446 328.765 179.612L328.373 177.124C328.112 176.207 327.981 175.421 327.589 175.028C326.936 173.98 326.283 173.456 326.022 173.587C325.76 173.718 325.63 173.849 325.63 174.242V174.373L326.152 178.04C326.414 180.136 326.544 181.184 326.544 181.184C325.369 180.529 324.585 180.005 324.324 179.35C323.932 178.695 323.67 177.386 323.279 175.421C323.017 173.718 322.495 172.539 321.972 171.754C321.581 171.361 321.189 171.099 320.666 171.099C320.536 171.099 320.536 171.23 320.405 171.361C320.405 171.623 320.536 172.147 320.666 173.194C320.927 174.111 320.927 174.635 320.927 174.897C320.797 175.028 320.797 175.552 320.927 176.6L321.189 179.219C320.405 178.695 319.882 178.04 319.882 177.255V176.993V176.862V176.731C319.621 176.338 319.491 175.028 319.621 172.67C319.752 170.575 319.752 169.396 319.882 169.265C320.144 169.003 320.144 168.348 319.752 167.431C319.621 167.038 319.491 166.777 319.229 166.646C318.968 166.515 318.707 166.908 318.576 167.562C318.315 168.348 318.184 169.003 318.054 169.658C318.054 170.051 317.792 170.837 317.27 172.147L316.878 175.028C316.094 173.325 315.964 171.492 316.486 169.527C316.878 168.086 317.401 167.038 318.054 166.122C318.968 165.205 319.621 164.288 320.013 163.502V163.371C320.013 163.109 320.274 162.454 320.797 161.538L321.842 159.966C322.103 159.704 322.103 159.311 322.103 159.18C321.972 158.918 321.842 158.787 321.711 158.656C320.927 158.525 320.405 158.918 319.752 160.097C319.36 161.276 318.837 162.061 318.315 162.585C317.662 163.502 317.139 163.633 317.009 162.716C317.27 161.93 317.531 160.883 317.531 159.704C317.531 159.18 317.401 158.787 317.27 158.656C317.009 158.525 316.617 158.656 316.356 159.049L316.225 159.311C315.311 161.668 314.788 163.502 314.788 164.681L315.049 165.598C315.18 165.991 315.18 166.253 315.18 166.384C314.657 168.61 314.266 169.658 314.266 169.658C313.874 169.265 313.612 168.348 313.743 167.169L313.09 165.074C312.698 164.157 312.306 163.633 311.914 163.633C311.522 163.502 311.261 163.764 311.261 164.288C311.261 166.384 311.392 168.217 311.392 169.789C311.522 170.837 311.653 171.623 311.784 171.754C311.914 172.016 312.176 172.408 312.698 172.801C313.09 173.063 313.482 173.456 313.482 173.587C314.527 176.862 315.441 178.826 316.094 179.481C316.225 179.612 316.486 179.743 317.009 179.874C317.27 180.005 317.531 180.267 317.792 180.529C318.576 181.577 319.621 182.232 321.058 182.494L322.495 182.756C322.887 182.887 323.148 183.017 323.279 183.148C323.54 183.672 325.107 184.327 327.589 184.982L328.634 186.161C327.589 185.375 326.283 184.851 324.715 184.589C324.062 184.327 323.409 184.327 322.756 184.196C321.581 184.196 321.058 184.458 321.189 184.851C321.58 187.078 322.364 188.78 323.148 189.959C324.193 191.4 325.63 192.448 327.459 192.841L328.765 193.103C329.418 193.234 329.679 193.365 329.81 193.626C330.202 194.543 329.81 196.901 328.634 200.961L327.589 205.021C327.197 206.331 327.197 207.117 327.197 207.379L328.765 208.689L330.463 209.736C331.247 210.391 332.422 210.784 333.859 211.177C334.512 211.308 334.904 211.308 335.035 211.046C335.427 211.308 335.688 211.177 335.818 210.784C336.733 211.046 339.476 210.129 343.917 208.427L345.223 208.034C345.485 208.034 345.876 207.903 346.007 207.641C346.268 207.117 346.007 205.545 345.354 202.926L344.57 201.092C344.57 199.52 344.309 197.949 343.656 196.246C343.525 195.984 343.525 195.591 343.525 195.329C343.656 194.674 343.525 194.019 343.264 193.365C345.746 193.757 347.966 192.71 350.056 189.959C350.84 189.042 351.363 187.995 351.755 186.816C352.146 185.899 352.277 185.244 352.146 184.851C352.016 184.458 351.624 184.196 350.84 184.196C350.187 184.065 349.403 184.196 348.489 184.458C346.268 184.982 344.831 185.768 344.048 186.947L342.872 188.257C342.872 188.126 342.872 187.864 342.872 187.34C343.003 187.078 344.44 186.03 347.444 184.196L347.705 184.065L349.142 183.672C349.926 183.41 350.318 183.148 350.448 183.017C351.363 183.017 352.538 182.494 353.975 181.577C355.281 180.66 356.196 180.005 356.588 179.219L357.11 178.564C358.024 177.647 358.678 176.6 358.939 175.683C359.069 175.421 359.069 175.159 359.331 174.766C359.461 174.504 359.592 174.111 359.592 173.849C359.592 173.587 359.853 173.063 360.245 172.408L361.551 170.313C361.813 167.562 361.813 165.598 361.813 164.55C361.682 163.371 361.421 162.978 360.898 163.371C360.506 163.633 360.114 164.288 359.853 165.336C359.592 166.384 359.461 167.431 359.461 168.479L359.331 169.265C358.808 169.003 358.547 168.086 358.416 166.908C358.547 166.253 358.678 165.336 358.678 164.157C358.547 162.585 358.416 161.407 357.894 160.621C357.502 159.966 357.241 159.18 357.11 158.263L356.457 157.346ZM342.872 194.019V195.067C342.742 195.46 342.742 195.853 342.872 196.115C343.525 197.818 343.786 199.52 343.786 200.961L344.44 202.402C344.701 202.795 344.831 203.712 345.093 204.89C345.354 206.2 345.354 206.986 345.223 207.379L345.093 207.51H344.962L344.57 207.117C344.44 206.855 344.57 206.331 344.57 205.545L344.309 205.414L344.048 203.843C343.786 203.319 343.786 203.057 343.656 202.795C343.525 202.402 343.395 202.402 343.395 202.664C343.264 203.057 343.264 203.45 343.264 203.974V205.414C342.872 204.236 342.611 203.057 342.611 201.747C343.003 200.568 343.133 199.389 342.872 198.604L342.611 197.687C342.48 197.294 342.48 197.032 342.48 196.901C342.35 196.246 342.48 195.329 342.872 194.019ZM338.562 200.306C338.692 200.568 338.692 200.699 338.3 200.83C336.733 201.092 335.427 201.092 334.512 200.699C334.382 200.306 334.643 200.044 335.165 200.175L338.562 200.306ZM341.305 200.306C341.566 200.568 341.697 201.092 341.305 201.616C341.043 201.485 341.043 201.092 341.305 200.306ZM342.088 198.342C342.48 199.127 342.48 199.913 342.35 200.83C341.697 199.651 341.566 198.735 342.088 198.342ZM341.566 207.117C340.652 204.628 340.39 203.188 340.782 203.057C341.435 202.926 341.697 204.366 341.566 207.117ZM336.602 204.497C336.733 205.021 336.733 205.807 336.472 206.855L336.341 208.82L336.472 209.736C336.341 210.129 336.341 210.129 336.21 209.998C336.08 209.867 335.949 209.344 335.949 208.689C335.818 208.165 335.949 207.248 336.08 206.069C336.21 204.89 336.21 204.236 335.949 204.105L336.08 202.402C335.949 201.747 336.21 202.402 336.602 204.497ZM328.504 186.03L328.765 186.161C329.549 186.685 330.071 187.078 330.071 187.471C329.679 186.947 329.026 186.423 328.504 186.03ZM328.242 190.483C328.373 190.352 328.373 190.221 328.242 190.221L327.197 190.09C326.936 189.959 326.805 189.828 326.544 189.697C326.022 189.304 325.76 188.78 325.63 188.518C325.499 188.126 325.891 188.257 326.544 188.911C326.675 189.173 326.936 189.435 327.459 189.697L328.373 190.221L328.242 190.483ZM332.683 190.745L332.292 190.876L331.9 190.614C331.9 190.352 332.161 190.352 332.553 190.483L332.683 190.745ZM332.683 206.2L332.814 206.986C332.945 207.248 332.945 207.248 332.945 206.986C332.945 207.248 333.075 206.724 333.206 205.676L333.337 203.319C333.598 202.14 333.99 201.747 334.251 201.878L333.99 205.807C333.728 205.676 333.598 205.938 333.337 206.2C333.337 206.724 333.337 206.986 333.337 207.248L332.945 210.26C332.553 210.391 332.292 210.129 332.292 209.605L332.422 208.427C332.422 208.034 332.422 207.641 332.292 207.248C332.161 206.855 332.03 207.117 331.9 208.427L331.769 209.736C331.508 209.867 331.377 209.605 331.116 208.951C331.247 209.082 331.247 208.689 331.377 207.772V206.986L331.639 205.807C331.9 205.021 331.9 204.497 331.9 204.105C331.639 203.581 331.9 202.533 332.292 200.961C332.553 200.83 332.683 201.616 332.683 203.581C332.422 204.366 332.422 205.152 332.683 206.2ZM334.904 207.248V205.676C334.773 204.497 334.773 203.843 335.035 203.581C335.688 204.497 335.818 206.724 335.296 210.26C335.165 210.26 335.165 210.391 335.035 210.391C334.643 210.129 334.643 209.082 334.904 207.248ZM334.382 210.26L334.12 210.391C333.99 210.391 333.99 210.522 333.99 210.653H333.598C333.728 208.427 333.859 207.379 334.251 207.641C334.382 208.165 334.382 209.082 334.382 210.26ZM331.116 204.759C330.855 202.402 330.855 201.223 331.377 200.83C331.639 200.83 331.639 202.14 331.116 204.759ZM355.804 157.739L356.065 157.608L356.326 158.132C356.457 159.18 356.718 160.097 357.241 160.621C357.633 161.276 357.894 162.192 357.894 163.502C358.024 164.812 357.894 165.86 357.633 166.646C357.894 168.217 358.286 169.134 358.939 169.527C358.939 169.789 358.939 169.92 359.069 169.92C359.2 169.92 359.331 169.789 359.461 169.527C359.592 169.265 359.723 168.872 359.723 168.348C359.723 167.562 359.853 166.515 359.984 165.467C360.245 164.157 360.637 163.502 360.898 163.371C361.159 163.502 361.159 164.681 361.159 166.777L360.898 169.92L359.723 171.754C359.069 172.67 358.808 173.194 358.808 173.587C358.808 173.849 358.678 174.111 358.547 174.504L358.155 175.421C357.894 176.207 357.502 176.862 356.979 177.386L355.804 178.695C355.412 179.35 354.498 180.136 353.191 181.053C351.624 181.97 350.579 182.363 349.795 182.232L349.665 182.625L349.534 182.363C349.403 182.494 349.011 182.625 348.358 182.887L347.052 183.279L346.921 183.41L344.178 184.982C342.872 185.899 342.088 186.423 342.088 186.947C341.958 187.471 342.088 187.864 342.219 188.126C342.48 188.387 342.872 188.387 343.264 187.864L344.048 186.816C344.831 185.637 346.138 184.982 348.228 184.589L350.318 184.327C350.971 184.327 351.232 184.458 351.232 184.589C351.363 184.851 351.101 185.506 350.84 186.423C350.448 187.471 349.795 188.387 349.142 189.304C347.183 191.924 345.093 192.972 342.742 192.448L342.611 192.186C342.35 191.793 342.219 192.186 342.219 193.496C341.827 194.805 341.305 195.853 340.652 196.901C340.39 197.163 340.26 197.163 339.998 197.032L339.607 196.377C339.476 196.377 339.476 196.508 339.476 196.639C340.129 197.818 340.129 198.604 339.737 199.127C339.345 199.782 338.692 199.782 337.778 199.258C337.647 199.127 337.647 199.127 337.778 198.996C338.562 198.866 338.692 198.342 338.562 197.687C338.431 196.901 338.17 196.77 337.778 197.032C336.733 197.163 335.688 197.294 334.773 197.163C334.512 196.901 334.382 196.901 334.251 197.163L333.99 197.949C333.859 198.473 334.251 198.866 334.904 198.996V199.389C332.945 199.913 332.292 199.127 332.945 197.032V196.77L332.683 197.425C331.9 197.294 331.377 196.508 331.247 195.067C330.985 194.805 330.724 194.936 330.594 195.722C330.463 195.46 330.594 196.377 330.724 198.211C330.985 199.127 330.855 199.651 330.594 199.913C330.463 200.044 330.332 199.913 330.202 199.782C330.071 199.52 330.071 199.258 330.071 198.866H329.81C329.549 199.258 329.549 199.782 329.81 200.175C329.94 200.437 330.071 200.961 330.071 201.485C330.202 202.271 330.332 202.926 330.332 203.581C330.463 205.414 330.463 207.117 330.202 208.427C329.81 208.427 329.549 208.165 329.549 207.772C329.81 205.938 329.81 204.366 329.418 203.188V202.402C329.157 201.747 329.026 201.747 328.765 202.533L328.242 206.462C328.112 207.117 327.981 207.51 327.589 207.51L327.067 207.117C326.936 206.855 327.197 206.2 327.328 205.283L328.895 198.996C329.549 196.377 329.679 194.543 329.549 193.626L329.679 193.496C329.679 193.234 329.81 192.841 329.94 192.186C329.94 191.269 330.071 190.876 330.594 190.876C330.594 191.269 330.724 191.793 331.116 192.055C331.508 192.448 332.03 192.448 332.553 192.448L332.814 192.71C332.945 192.972 333.075 193.103 333.206 193.496L333.337 193.626L333.598 193.496C333.728 193.234 333.728 192.71 333.467 191.924C333.206 190.614 332.814 189.828 332.161 189.566C331.639 189.304 331.116 189.697 330.594 190.483C330.463 190.352 330.463 190.221 330.332 190.221L330.071 190.09C330.202 189.959 330.202 189.697 330.202 189.304C329.418 189.042 328.895 188.649 328.634 188.257C327.85 187.34 327.067 186.816 326.152 186.423C325.369 186.161 325.238 186.292 325.891 187.078C326.283 187.209 326.805 187.602 327.197 187.995C327.589 188.518 327.589 188.78 327.328 188.78L326.544 188.257L325.891 187.471C324.977 186.685 323.932 186.03 323.148 185.768C322.234 185.375 321.972 185.506 322.234 185.899C322.103 186.03 322.495 186.292 322.887 186.685C323.409 187.078 323.54 187.34 323.409 187.471C322.756 187.209 322.625 187.209 322.756 187.602C323.017 187.864 323.409 188.257 324.193 188.518C323.54 188.649 323.279 188.78 323.54 188.911C323.801 189.173 324.193 189.173 324.715 189.304L325.107 189.828C323.801 189.828 323.932 190.09 325.369 190.614L326.022 190.745L326.283 191.007C325.63 191.138 325.499 191.138 325.63 191.269L326.805 191.924C327.197 191.924 327.72 192.317 328.242 192.972H327.85L326.675 192.71C324.846 192.317 323.54 191.269 322.625 189.828C321.711 188.649 321.189 186.947 320.797 184.982C320.927 184.851 321.058 184.851 321.581 184.851C322.887 184.851 324.324 185.113 325.891 185.768C327.459 186.423 328.634 187.209 329.549 188.257C329.679 188.387 329.81 188.387 329.94 188.387C330.202 188.257 330.202 188.126 330.202 187.995C330.332 187.733 330.071 187.34 329.549 186.816C329.287 186.554 329.026 186.423 328.634 186.03C328.373 186.03 327.85 185.637 327.328 184.851L327.197 184.72C326.805 184.196 326.544 184.065 326.675 184.458C324.454 183.934 323.148 183.541 323.017 183.017C322.887 182.756 322.495 182.625 321.842 182.363L320.666 182.101C319.36 181.839 318.184 181.315 317.531 180.267L316.878 179.612L316.094 179.35C315.441 179.088 314.788 178.04 314.135 176.207L313.221 173.325C313.09 173.063 312.829 172.67 312.306 172.408C311.914 172.016 311.522 171.754 311.392 171.492C311.261 171.23 311.261 170.575 311.131 169.527C311 168.086 311 166.253 311 164.157L311.131 164.026C311.392 164.026 311.784 164.55 312.045 165.467L312.698 167.3L312.829 168.741C312.959 169.396 313.221 169.92 313.351 170.182H313.874C314.135 169.92 314.266 169.396 314.657 168.348L315.049 166.515C315.049 166.253 315.049 165.991 314.919 165.729C314.657 164.943 314.657 163.764 315.049 162.585L316.094 159.573L316.617 159.311C316.747 159.442 316.747 159.573 316.747 159.966C316.747 160.752 316.617 161.407 316.486 162.061L316.225 162.716C316.356 163.371 316.617 163.633 317.009 163.764C317.662 163.895 318.446 162.978 319.229 161.407L320.274 159.704C320.536 159.311 320.927 159.049 321.189 159.049C321.58 159.049 321.581 159.311 321.319 159.573L320.274 161.407C319.752 162.323 319.491 163.109 319.491 163.371C319.099 164.157 318.576 164.943 317.662 165.86C316.878 166.777 316.225 167.955 315.833 169.527C315.18 171.623 315.441 173.718 316.486 175.552C316.617 175.814 316.747 175.945 316.878 175.683C317.009 175.552 317.139 175.028 317.27 173.849L317.531 172.016C317.792 171.23 318.184 170.182 318.315 169.265L318.837 167.431L319.099 166.908C319.229 167.038 319.229 167.3 319.36 167.693C319.491 168.086 319.491 168.479 319.36 168.61C319.099 169.265 318.968 170.444 318.968 172.67C318.837 175.028 318.968 176.338 319.229 176.862V177.124C319.36 178.171 320.013 179.088 321.189 179.612L321.45 179.743L321.581 179.35L321.45 178.695L321.189 175.159V175.028C321.319 174.897 321.319 174.373 321.058 173.456L320.797 171.492C321.581 171.754 322.234 173.063 322.756 175.421C323.148 177.517 323.54 178.957 323.801 179.481C324.193 180.267 324.977 180.922 326.283 181.577C326.414 181.577 326.544 181.577 326.675 181.446C326.936 181.184 326.675 178.826 326.022 174.373L326.152 174.111C326.414 174.111 326.805 174.504 327.328 175.29C327.589 175.683 327.85 176.469 328.112 177.255C328.504 179.35 328.765 180.66 328.895 181.184C329.549 182.494 330.463 183.148 332.03 183.541H332.292L332.422 183.41C332.945 183.148 333.337 183.279 333.728 183.672L333.99 183.41C333.99 183.541 333.99 183.672 334.12 183.672L335.818 183.541L337.386 183.672C337.647 183.934 338.431 183.934 339.998 183.41H340.26H341.174L341.305 183.541C342.219 183.934 343.133 183.541 343.786 182.101C344.178 181.315 344.57 180.529 344.962 179.481C345.093 177.386 345.746 175.552 346.66 173.98L347.052 173.718L346.66 176.338C346.53 176.862 346.53 177.647 346.53 178.695C346.53 179.612 346.399 180.529 346.268 180.922L346.66 181.053L346.399 180.922H346.53C347.183 180.791 347.705 180.66 348.097 180.398C349.011 179.743 349.665 178.433 350.056 176.469L350.448 174.111C350.579 173.194 350.84 172.539 351.101 172.147C351.363 171.754 351.493 171.492 351.755 171.492C351.885 172.147 351.885 173.456 351.624 175.29C351.493 177.124 351.232 178.302 351.101 178.695L351.493 178.957L351.363 179.088H351.624C352.8 179.088 353.583 177.517 353.714 174.242C353.845 173.587 353.714 172.932 353.583 172.278L352.93 169.92C352.8 169.003 352.93 168.217 353.322 167.431L354.106 169.396C354.889 171.099 355.412 173.325 355.673 175.945C356.718 174.635 357.11 173.194 356.979 171.623C356.979 170.313 356.588 168.872 355.804 167.038L355.151 166.515C353.714 165.205 352.93 163.895 352.8 162.585C352.669 161.799 352.408 161.014 351.885 160.097L351.101 158.787C351.232 158.525 351.755 158.525 352.538 159.18C353.322 159.835 353.845 160.49 353.845 161.276C353.975 161.93 354.236 162.454 354.628 162.978C355.02 163.633 355.543 163.764 355.804 163.371C356.065 163.24 356.065 162.716 355.934 162.061L355.543 160.228C355.412 159.442 355.281 158.787 355.281 158.394C355.543 158.132 355.673 157.87 355.804 157.739ZM338.039 202.271L338.17 202.533C338.3 202.795 338.3 203.188 338.3 203.712C338.17 203.974 338.3 204.759 338.562 205.807L338.823 206.986L338.953 208.82L338.692 209.605L338.431 209.736L338.3 209.344C338.17 208.689 338.17 207.903 338.039 206.855C338.039 206.069 337.908 205.414 337.778 204.89C337.517 203.974 337.517 204.89 337.647 207.772L337.517 209.344L337.386 209.998L337.125 210.129L336.994 209.867C336.863 209.605 336.863 209.213 336.863 208.558L337.125 206.724C337.255 204.366 337.255 203.057 336.994 202.795C336.994 202.533 337.125 202.402 337.255 202.402C337.517 202.402 337.517 202.664 337.517 203.057C337.517 203.45 337.647 203.45 337.778 203.188C338.039 202.795 338.17 202.533 338.039 202.271ZM340.39 208.951L340.129 208.296L339.607 205.021C339.215 202.795 339.215 201.616 339.345 201.485C339.607 201.354 339.607 201.747 339.868 202.664L340.782 208.82L340.39 208.951Z" fill="black"></path><path fill-rule="evenodd" clip-rule="evenodd" d="M345.876 177.778C345.745 177.124 345.615 177.124 345.615 177.647C345.223 181.315 344.047 183.541 342.088 184.065H341.304L341.173 184.327L341.304 184.458C341.173 184.458 341.565 184.982 342.741 186.161C344.439 185.244 345.484 183.279 345.876 180.398C346.006 179.35 346.006 178.564 345.876 177.778Z" fill="black"></path><path fill-rule="evenodd" clip-rule="evenodd" d="M351.362 176.863C351.492 176.077 351.492 175.553 351.231 175.291C351.1 175.16 350.97 175.422 350.839 176.208C350.578 178.566 349.794 180.269 348.488 181.316C348.096 181.578 347.704 181.84 347.182 182.102L346.398 182.364L346.006 183.15L345.614 183.936L348.096 182.757C348.88 182.364 349.533 181.84 350.055 181.316C350.839 180.399 351.231 178.828 351.362 176.863Z" fill="black"></path><path fill-rule="evenodd" clip-rule="evenodd" d="M355.02 164.943L355.803 165.86C356.457 166.777 356.979 167.956 357.24 169.527L357.893 169.396C357.371 167.956 357.11 166.777 357.24 165.729C357.371 163.241 357.11 162.324 356.979 162.848C356.848 163.764 356.718 164.419 356.326 164.681L355.412 164.812C355.02 164.812 354.889 164.812 355.02 164.943Z" fill="black"></path><path fill-rule="evenodd" clip-rule="evenodd" d="M360.245 169.92L358.808 170.968C358.416 171.23 358.025 171.361 357.894 171.23C358.025 172.277 357.894 173.063 357.894 173.718C357.633 175.028 357.11 176.076 356.326 176.731L356.196 178.04C357.502 177.255 358.416 175.421 358.808 172.539C359.723 171.23 360.245 170.444 360.245 169.92Z" fill="black"></path><path fill-rule="evenodd" clip-rule="evenodd" d="M355.151 174.243C355.02 174.243 355.02 174.374 354.89 174.505C354.759 174.767 354.759 174.898 354.89 175.16C354.759 176.862 354.498 178.172 353.975 178.827C353.453 179.613 352.669 180.137 351.755 180.399L350.84 181.708C352.016 181.446 352.93 180.922 353.845 180.268C354.759 179.482 355.282 178.434 355.412 177.386C355.412 175.421 355.282 174.374 355.151 174.243Z" fill="black"></path><path fill-rule="evenodd" clip-rule="evenodd" d="M348.357 186.818L349.01 186.425C349.402 186.294 349.663 186.032 349.663 185.639C349.533 185.377 349.271 185.377 348.749 185.508C348.226 185.639 347.704 185.901 347.181 186.294C345.614 187.342 344.569 188.52 344.046 189.961C343.524 190.223 343.263 190.747 343.263 191.664C343.393 191.795 343.916 191.795 344.7 191.402C345.483 191.009 345.875 190.747 345.875 190.616C345.614 190.485 345.614 190.354 345.614 190.223L345.745 190.092C346.92 189.699 347.312 189.437 347.051 189.175C346.659 189.175 346.398 189.044 346.528 188.913L347.443 188.52C347.835 188.389 348.096 188.127 348.096 187.996C347.443 188.127 347.312 187.996 347.443 187.734C347.443 187.604 347.704 187.473 348.096 187.473C348.488 187.211 348.88 187.08 349.141 186.818C349.271 186.687 349.01 186.556 348.88 186.687L348.357 186.818ZM347.051 187.473C346.79 187.604 346.528 187.865 346.267 188.127C346.006 188.389 345.875 188.651 345.875 188.782L345.745 188.651C345.614 188.52 345.614 188.52 345.483 188.52C345.483 188.127 345.875 187.734 346.659 187.211C347.051 187.08 347.051 187.211 347.051 187.473Z" fill="black"></path><path fill-rule="evenodd" clip-rule="evenodd" d="M349.795 187.996L349.665 187.734C349.534 187.603 349.534 187.603 349.795 187.472C350.318 187.21 350.579 187.079 350.449 186.817C350.318 186.686 350.318 186.686 350.057 186.686C350.057 186.555 350.057 186.424 350.187 186.424C350.449 186.424 350.71 186.162 350.84 185.769C350.971 185.376 350.84 185.245 350.449 185.376C349.273 187.21 348.489 188.52 347.836 189.437C347.052 190.353 346.399 191.008 345.615 191.27L345.485 191.663C347.967 190.615 349.142 189.567 349.012 188.52C349.404 188.52 349.665 188.258 349.795 187.996Z" fill="black"></path><path fill-rule="evenodd" clip-rule="evenodd" d="M338.823 189.043C338.953 188.912 338.953 188.912 339.084 188.912L339.345 189.174C339.606 188.912 339.737 188.65 339.737 188.257H339.867C339.998 187.864 340.129 187.864 340.39 187.864C340.39 187.995 340.39 188.126 340.39 188.257H341.174C341.304 188.65 341.435 189.043 341.696 189.305L341.827 190.222C341.957 190.484 341.696 190.353 341.566 189.96C341.174 189.436 340.782 189.305 340.259 189.829C339.867 190.091 339.476 190.615 339.214 191.4C338.953 192.186 338.823 192.71 338.692 193.365C338.692 193.889 338.823 194.151 338.953 194.02C339.084 193.365 339.345 192.841 339.737 192.579C340.521 192.448 341.043 192.317 341.435 192.186C341.696 191.924 341.827 191.662 342.088 191.138L342.741 191.007C342.741 190.615 342.741 190.222 343.002 189.829C342.611 189.567 342.349 189.436 342.219 188.912L341.957 187.602L341.566 186.816C340.39 184.721 339.214 183.804 337.647 184.197H335.949C335.165 185.376 335.034 185.376 335.296 184.197H335.165H334.904C334.512 184.983 334.251 185.376 333.989 185.507C333.859 185.637 333.728 185.637 333.728 185.507C333.728 185.245 333.859 184.852 334.251 184.459C334.251 184.328 334.12 184.328 333.859 184.328L333.336 184.852C333.206 185.245 332.814 185.637 332.291 186.161L331.246 187.209C331.246 187.602 331.116 187.864 331.116 188.257H331.508L331.769 188.126C331.899 187.864 332.03 187.602 332.161 187.602C332.291 187.602 332.422 187.864 332.553 188.257C332.814 188.519 332.944 188.65 333.075 188.65C333.206 187.995 333.206 187.864 333.467 187.995C333.598 188.257 333.728 188.912 333.989 189.829C334.12 189.96 334.12 189.96 334.12 189.96L334.251 189.698C334.381 189.436 334.512 189.436 334.643 189.829L334.773 191.4C335.034 191.662 335.034 191.793 335.034 192.186C335.426 192.055 335.426 192.317 335.165 192.972C335.165 193.103 335.296 193.234 335.296 193.234C335.426 193.234 335.426 193.365 335.426 193.496C335.426 193.758 335.296 193.758 335.165 193.889C335.296 194.151 335.426 194.282 335.557 194.282C335.688 194.282 335.818 194.02 335.949 193.889L336.079 191.924C336.079 191.531 336.21 191.269 336.21 191.269H336.471C336.602 191.4 336.602 191.531 336.471 191.662L336.602 193.627C336.733 194.02 336.994 194.151 337.255 194.02C337.516 194.02 337.516 193.889 337.386 193.496C337.255 193.496 337.255 193.496 337.255 193.365C337.386 193.234 337.386 193.234 337.516 193.234C337.647 193.234 337.516 192.972 337.255 192.841C337.255 192.448 337.386 192.448 337.647 192.448C337.778 191.662 337.908 191.269 338.431 191.4L338.823 189.043ZM336.471 190.353C336.21 190.615 336.21 190.746 336.21 191.007C335.949 191.138 335.818 191.269 335.557 191.138C335.688 190.484 335.949 190.091 336.471 189.96C336.602 189.96 336.602 190.091 336.471 190.353ZM340.129 190.746C340.259 190.484 340.521 190.353 340.782 190.484C340.521 190.877 340.259 191.138 340.129 190.746ZM335.688 189.567C335.557 189.305 335.688 189.174 335.818 189.043C335.949 188.912 336.079 188.912 336.341 188.912C336.21 189.305 336.079 189.567 335.688 189.567Z" fill="black"></path><path fill-rule="evenodd" clip-rule="evenodd" d="M340.781 193.235C340.781 193.104 340.651 193.366 340.651 193.889L340.52 194.675L341.695 193.758C341.956 193.366 342.087 192.973 341.956 192.58C341.564 192.842 341.042 193.104 340.781 193.235Z" fill="black"></path><path fill-rule="evenodd" clip-rule="evenodd" d="M312.306 167.824C312.045 167.693 311.914 167.824 311.914 167.955C311.653 169.92 312.306 171.361 313.612 172.277L314.396 173.456C314.788 175.29 315.31 176.469 315.702 177.255C316.094 178.302 316.878 178.826 317.531 178.957L317.27 177.516C315.833 176.338 315.049 174.111 314.919 171.099C313.09 171.099 312.306 169.92 312.306 167.824Z" fill="black"></path><path fill-rule="evenodd" clip-rule="evenodd" d="M322.233 175.683L321.841 175.29C321.58 175.159 321.58 175.29 321.58 175.814C321.71 180.66 323.539 183.279 327.066 183.672L326.674 182.232C324.061 181.839 322.494 179.612 322.233 175.683Z" fill="black"></path><path fill-rule="evenodd" clip-rule="evenodd" d="M327.457 178.565C327.326 178.172 327.196 177.91 327.065 177.91L326.935 178.172C326.935 180.53 327.196 182.232 327.849 183.542C328.371 184.721 329.286 185.638 330.461 186.424C330.723 186.293 330.984 186.031 331.376 185.769L331.898 184.983C332.16 184.721 332.16 184.59 332.029 184.328V184.197C331.768 184.066 331.768 184.197 331.637 184.459C330.331 184.197 329.547 183.673 329.025 182.887C328.241 181.97 327.849 180.53 327.457 178.565Z" fill="black"></path><path fill-rule="evenodd" clip-rule="evenodd" d="M332.291 193.889C332.421 193.497 332.291 193.235 331.899 193.497C331.377 193.366 330.985 192.842 330.724 192.188C330.724 192.318 330.593 192.58 330.724 192.842C330.724 193.104 330.855 193.497 330.985 193.627C331.507 194.282 331.899 194.413 332.291 193.889Z" fill="black"></path><path fill-rule="evenodd" clip-rule="evenodd" d="M315.703 163.371H315.572C315.441 164.288 315.441 165.205 315.703 165.991L314.919 169.789L315.18 170.051C315.311 170.182 315.441 170.051 315.572 169.789L316.356 167.562C316.748 166.384 317.401 165.336 318.315 164.419L318.185 164.288C317.009 164.812 316.356 164.55 315.703 163.371Z" fill="black"></path><path fill-rule="evenodd" clip-rule="evenodd" d="M318.054 173.98C317.923 173.849 317.793 173.718 317.793 173.849C316.878 178.957 318.446 181.446 322.364 181.839L321.581 180.398C319.752 180.267 318.576 178.171 318.054 173.98Z" fill="black"></path><path fill-rule="evenodd" clip-rule="evenodd" d="M447.632 227.287H446.456L442.537 234.098L442.015 234.884V230.561L442.145 229.252L436.529 227.287L434.961 230.038L434.177 231.347L433.655 231.871L433.132 232.395L434.439 232.788L435.614 233.312V255.84L435.353 258.59L434.961 259.638L444.235 262.127L447.893 256.233L448.154 255.447V255.316L448.023 255.054L446.587 254.53L446.325 254.661L446.064 255.316L445.803 256.495L442.015 255.578L441.884 254.137L442.015 238.42L442.668 236.979L443.452 235.801L443.843 235.277L444.105 235.015H444.235V234.884L444.366 235.015L446.064 240.778V242.087V242.611L445.019 244.707L446.064 245.755L448.023 244.183L449.591 242.087L450.244 240.254L450.505 238.944V238.158L450.375 237.11V236.455L448.677 230.038L447.632 227.287Z" fill="black"></path><path fill-rule="evenodd" clip-rule="evenodd" d="M422.159 231.74L421.637 232.002L417.718 232.788L418.241 235.146L418.371 237.11L418.502 237.896V254.792L417.98 259.114L428.168 261.734L429.866 261.996L433.001 256.626L433.654 254.923H433.001L432.609 254.661L432.217 254.399H431.826L431.303 255.709L431.042 256.495L424.903 255.054L424.772 251.387L425.294 249.815L426.078 248.505L433.524 235.408L426.731 228.204L425.817 227.287L422.421 231.478L422.159 231.74ZM424.903 235.146L429.082 239.861V240.254L425.556 247.064L424.772 247.981V235.146H424.903Z" fill="black"></path><path fill-rule="evenodd" clip-rule="evenodd" d="M408.444 222.311L408.183 222.049L407.661 221.787L407.269 222.442L406.485 222.966L405.701 223.228H405.179L404.656 223.097L400.868 220.608L398.256 223.621L397.341 224.276L395.774 224.931L392.508 225.847L392.639 226.24L393.161 228.205L393.423 231.348L393.161 237.373L393.423 237.635V237.897L393.161 238.159L393.423 238.29V238.683L393.553 239.731L393.423 269.462H395.774V268.676L396.296 267.367L397.08 266.45L397.603 266.319L398.256 266.057L399.039 265.795H399.562V227.026L401.391 227.681H401.913L402.436 227.812H403.089L404.003 227.681L404.918 227.288L406.485 226.109L406.877 225.585L407.399 225.193L408.183 224.145L408.706 223.097L408.836 222.704V222.573L408.706 222.442L408.444 222.311Z" fill="black"></path><path fill-rule="evenodd" clip-rule="evenodd" d="M408.444 226.501L408.183 227.025L406.485 229.121L403.611 232.002L405.571 232.264V255.578L405.44 256.364L405.309 257.804L404.656 260.424L411.057 262.126H411.449L411.841 261.864V261.734L414.061 258.328L414.714 257.018L411.841 256.233V232.526H411.971V232.264L414.453 232.395L415.106 232.264L415.367 232.002L415.759 231.478L417.588 227.287H416.935H411.971L411.841 223.096L411.71 222.441V221.917L408.444 226.501Z" fill="black"></path><path fill-rule="evenodd" clip-rule="evenodd" d="M385.586 226.24L385.978 226.502L389.766 221.918L386.5 220.739L384.933 226.109L385.586 226.24Z" fill="black"></path><path fill-rule="evenodd" clip-rule="evenodd" d="M388.198 232.002L389.112 229.906L382.581 227.549L379.185 232.788L382.058 234.098V254.53L381.144 260.424L388.067 262.126L389.765 259.638L390.288 258.328L390.81 257.804L390.941 257.28L388.198 256.232V244.838H388.067H388.198V232.002Z" fill="black"></path><path fill-rule="evenodd" clip-rule="evenodd" d="M378.793 255.185L377.748 255.055L377.225 254.793L376.703 254.531H376.572V254.793L376.05 256.102L375.919 256.364H375.266L374.352 256.102L369.78 254.924L369.649 251.518L369.78 250.732L370.041 250.077L371.086 248.244L371.608 247.589L378.532 235.146L370.955 227.157L368.082 230.693L367.559 231.217L366.775 231.741L363.902 232.527L362.987 232.658L363.379 234.753L363.64 253.09L363.118 259.246L373.698 261.865L374.743 261.996L378.793 255.185ZM369.649 235.015L373.698 239.337L374.09 239.73L374.221 239.992V240.254L373.96 240.516L370.694 246.934L369.78 248.244V235.015H369.649Z" fill="black"></path><path fill-rule="evenodd" clip-rule="evenodd" d="M358.677 231.609L359.46 230.299L351.492 227.549L346.267 237.11L346.137 235.407L346.267 234.622V233.705L346.659 230.299L338.822 227.549L334.119 235.538L333.336 236.586L333.466 232.002L333.728 230.43L333.989 229.775L332.291 229.252L330.985 228.597L327.85 227.549L324.584 232.133V232.395L327.196 233.705V255.054L326.674 259.507L326.413 260.686L332.683 262.257L335.426 257.28L333.336 256.494V242.218L333.205 241.039L333.336 240.253V239.73H333.466L333.728 238.944L334.25 238.42L336.993 233.443L337.777 233.705L339.998 234.36L340.259 254.006L339.998 257.804L339.736 259.376L339.344 259.638L339.214 260.162V260.424L339.736 260.686L341.043 261.209L345.484 262.257L348.096 257.28L347.182 256.756L346.137 256.494V243.528L346.006 242.48V240.777L346.137 240.253L346.529 239.468L347.574 237.765L348.096 237.11L350.056 233.443L352.146 234.36V255.316L351.754 259.114L351.492 260.424L358.415 262.257L361.028 257.28L358.415 256.232L358.154 234.098L358.546 232.395L358.677 231.609Z" fill="black"></path><path fill-rule="evenodd" clip-rule="evenodd" d="M320.013 227.287H319.752L319.229 227.549L318.968 227.811L314.788 235.539V232.264L315.049 230.954V230.038L315.31 229.514L309.694 227.549L308.126 230.169L306.297 232.395L308.779 233.443V256.757L308.387 258.983L308.126 259.9L317.27 262.258L321.319 255.316L319.229 254.661L318.837 256.757L317.662 256.495L314.788 255.709L314.657 240.254L314.788 238.682L315.049 238.289L315.18 237.765L315.572 237.11L315.833 236.586L317.139 234.753L317.4 235.277L319.098 240.778L319.229 241.563V242.48L319.098 243.004L318.837 243.79L317.923 244.838L319.098 246.017L320.274 245.1L321.842 243.004L322.887 241.04L323.017 239.992L323.278 238.027L322.495 233.705L320.666 227.549L320.013 227.287Z" fill="black"></path><path fill-rule="evenodd" clip-rule="evenodd" d="M299.504 228.335L298.459 227.68L295.585 231.085L294.802 231.871L293.887 232.264L290.36 233.05L290.752 234.359L291.144 237.896L291.013 247.981L291.144 248.112L291.013 248.243V248.636L291.144 249.16L290.622 258.328L290.36 259.507L302.247 262.388L303.423 260.685L306.427 255.446L304.598 254.792L304.206 255.577L303.815 256.756L297.414 255.054L297.153 251.648L297.545 250.731L298.067 249.553L299.635 247.195L306.296 235.8L299.504 228.335ZM299.112 236.586L301.855 239.991L297.283 248.374L297.022 246.671V234.883L299.112 236.586Z" fill="black"></path><path fill-rule="evenodd" clip-rule="evenodd" d="M287.226 231.478L275.861 227.68L273.51 230.561L272.857 231.347L268.024 233.312L268.808 235.407V236.455L268.938 237.372V255.185L268.416 258.328L268.024 259.9L275.078 261.864L273.51 262.126L271.943 262.912L270.375 264.222L267.11 268.806L266.979 269.068H267.11V269.199L267.763 269.33L268.546 269.723L268.808 268.937L269.2 268.282L269.461 268.02L269.853 267.758L271.028 267.234H271.681L272.204 267.103H272.857L275.208 267.627L278.996 269.199L282.131 265.663L282.523 265.401L283.438 265.008L286.442 264.222L286.311 238.158L286.181 236.979L286.442 233.443L286.573 232.919V232.788L286.703 232.395L287.226 231.478ZM281.217 235.538L279.78 237.372L280.172 238.289L280.433 240.253V249.684L280.172 250.862L277.037 256.363L274.555 255.839L274.294 254.268L274.555 233.443L281.217 235.538ZM280.172 253.22L280.433 255.446L280.303 263.043L276.384 262.126L275.208 261.995L280.172 253.22Z" fill="black"></path><path fill-rule="evenodd" clip-rule="evenodd" d="M261.624 220.87L260.448 224.014L260.056 225.978L260.448 226.502L260.971 226.24L261.362 225.978L261.885 225.454L264.628 222.049L261.624 220.87Z" fill="black"></path><path fill-rule="evenodd" clip-rule="evenodd" d="M255.224 226.24L255.485 225.978L256.008 225.454L258.881 222.049L255.746 220.87L254.048 226.24L254.701 226.502H254.963L255.224 226.24Z" fill="black"></path><path fill-rule="evenodd" clip-rule="evenodd" d="M236.936 226.501L234.585 228.335L233.54 228.99V230.038L233.801 231.086V233.705V235.801H229.099L228.968 234.753L226.617 234.884L226.747 245.362L228.184 241.04L228.446 240.254L228.968 239.861L229.621 239.73L234.062 239.861V260.555V262.127L233.279 261.341L232.625 260.424L226.356 252.828L225.311 251.911L224.527 250.47L224.396 250.339V248.112H223.221L222.959 248.243L222.698 248.505L222.306 249.291L221.653 251.387L221 255.185V256.233L221.392 257.281L222.567 259.638L230.144 269.068L230.797 269.592L235.107 266.056L236.414 265.008L237.589 264.484L241.508 263.306L241.377 243.79L241.116 242.611L241.377 242.088V241.695H241.508V241.564H241.377L241.116 241.04V238.813L241.377 238.027L240.985 229.645L241.377 226.763L241.508 225.847L241.9 225.192L242.292 224.93L242.553 224.406L243.859 223.62V222.048H225.311L225.049 221.917V221.786V221.655L224.919 221.393V221H222.959V233.443L225.049 227.68L230.536 227.549L236.936 226.501Z" fill="black"></path><path fill-rule="evenodd" clip-rule="evenodd" d="M264.628 231.478L253.917 227.68L251.827 230.43L251.043 231.347L250.39 231.609L245.296 233.967L245.818 234.752L247.647 236.717L248.953 237.634L249.998 238.158L248.823 238.682L245.296 239.86L246.08 250.469L245.557 259.114L245.296 260.685L253.003 262.388L257.183 255.315L257.313 255.446L257.052 260.816L262.799 262.388L265.804 257.804L266.065 257.149L263.583 256.363V233.705L263.975 232.526L264.628 231.478ZM256.921 237.503L257.313 237.634L257.575 251.124L257.313 252.172L257.183 252.565L254.831 256.494L252.611 255.839H252.088L251.958 240.646L252.088 240.122L252.35 239.729L256.921 237.503ZM259.534 235.407L259.273 235.538L259.011 235.8L258.489 236.062H256.53H255.485L254.309 235.669L253.003 234.883L252.219 233.574L252.088 233.181L259.534 235.407Z" fill="black"></path></svg> 