<?xml version="1.0" encoding="UTF-8"?> <svg xmlns="http://www.w3.org/2000/svg" width="672" height="417" viewBox="0 0 672 417" fill="none"><rect width="672" height="417" fill="white"></rect><path fill-rule="evenodd" clip-rule="evenodd" d="M343.347 210.278H347.352V215.939H351.654V201.351H347.352V206.298H343.347V201.351H339.045V215.939H343.347V210.278Z" fill="black"></path><path fill-rule="evenodd" clip-rule="evenodd" d="M352.168 195.98H345.518V193.526H350.925V189.893H345.518V187.787H351.911V184H341.236V199.825H352.168V195.98Z" fill="black"></path><path fill-rule="evenodd" clip-rule="evenodd" d="M330.423 193.7H334.428V199.825H338.71V184H334.428V189.372H330.423V184H326.121V199.825H330.423V193.7Z" fill="black"></path><path fill-rule="evenodd" clip-rule="evenodd" d="M360.791 222.18C360.791 219.127 359.567 217.775 356.746 217.755H353.135V232.904H360.791V222.18Z" fill="black"></path><path fill-rule="evenodd" clip-rule="evenodd" d="M362.547 220.674V232.905H373.399V217.756C373.597 211.032 367.144 201.332 357.042 201.351L353.154 201.37V215.882L357.022 215.862C360.475 215.92 362.389 217.621 362.547 220.674Z" fill="black"></path><path fill-rule="evenodd" clip-rule="evenodd" d="M334.685 228.692C334.291 229.098 333.778 229.31 333.107 229.31C332.239 229.31 331.587 228.982 331.134 228.306C330.68 227.629 330.463 226.644 330.463 225.33C330.463 223.997 330.68 222.992 331.094 222.335C331.508 221.678 332.14 221.349 332.988 221.349C333.679 221.349 334.212 221.543 334.587 221.91C334.962 222.277 335.179 222.837 335.257 223.572H339.362C339.224 221.697 338.612 220.267 337.507 219.263C336.402 218.258 334.883 217.755 332.949 217.755C330.857 217.755 329.2 218.432 327.976 219.784C326.753 221.137 326.161 222.992 326.161 225.33C326.161 227.687 326.773 229.523 327.996 230.876C329.22 232.228 330.916 232.904 333.048 232.904C334.962 232.904 336.481 232.383 337.586 231.339C338.711 230.296 339.322 228.827 339.441 226.934H335.376C335.317 227.687 335.08 228.286 334.685 228.692Z" fill="black"></path><path fill-rule="evenodd" clip-rule="evenodd" d="M345.538 226.78H350.925V223.495H345.538V221.582H351.911V218.123H341.236V232.499H352.168V229.002H345.538V226.78Z" fill="black"></path><path fill-rule="evenodd" clip-rule="evenodd" d="M374.976 217.756V232.905H389.164V217.756C389.164 198.414 371.681 185.275 357.099 184.29L353.113 184.348V199.844H357.04C367.498 200.521 374.976 208.327 374.976 217.756Z" fill="black"></path><path fill-rule="evenodd" clip-rule="evenodd" d="M316.451 218.123L311.755 232.499H315.978L316.491 230.586H320.753L321.246 232.499H325.488L320.792 218.123H316.451ZM317.26 227.591L318.622 222.606L319.963 227.591H317.26Z" fill="black"></path><path fill-rule="evenodd" clip-rule="evenodd" d="M329.494 215.939H333.796V205.196H337.565V201.351H325.627V205.196H329.494V215.939Z" fill="black"></path><path fill-rule="evenodd" clip-rule="evenodd" d="M302.088 232.499H306.37V227.456H311.007V223.978H306.37V221.756H312.191V218.123H302.088V232.499Z" fill="black"></path><path fill-rule="evenodd" clip-rule="evenodd" d="M286.085 209.119C286.085 208.616 286.085 208.21 286.065 207.94C286.045 207.65 286.025 207.399 285.966 207.128C286.104 207.592 286.242 208.017 286.38 208.384C286.519 208.751 286.637 209.022 286.755 209.234L290.504 215.978H294.609V201.351H290.504V208.23C290.504 208.674 290.504 209.041 290.524 209.35C290.544 209.66 290.564 209.949 290.603 210.201C290.465 209.698 290.327 209.273 290.189 208.925C290.051 208.578 289.932 208.307 289.814 208.114L286.065 201.332H282V215.92H286.085V209.119Z" fill="black"></path><path fill-rule="evenodd" clip-rule="evenodd" d="M303.547 216.347C305.698 216.347 307.395 215.652 308.638 214.28C309.881 212.908 310.493 211.034 310.493 208.657C310.493 206.28 309.881 204.406 308.638 203.034C307.395 201.662 305.698 200.967 303.547 200.967C301.397 200.967 299.7 201.662 298.457 203.034C297.213 204.406 296.582 206.28 296.582 208.657C296.582 211.034 297.213 212.908 298.457 214.28C299.7 215.671 301.397 216.347 303.547 216.347ZM301.555 205.623C301.969 204.986 302.64 204.657 303.547 204.657C304.455 204.657 305.106 204.986 305.521 205.623C305.935 206.261 306.152 207.285 306.152 208.676C306.152 210.068 305.935 211.072 305.521 211.729C305.106 212.367 304.455 212.695 303.547 212.695C302.64 212.695 301.989 212.367 301.555 211.729C301.12 211.092 300.923 210.068 300.923 208.696C300.923 207.285 301.14 206.261 301.555 205.623Z" fill="black"></path><path fill-rule="evenodd" clip-rule="evenodd" d="M316.608 199.825H320.89V188.174H324.659V184H312.761V188.174H316.608V199.825Z" fill="black"></path><path fill-rule="evenodd" clip-rule="evenodd" d="M316.708 210.916H318.543C319.214 210.916 319.688 211.07 319.964 211.379C320.24 211.688 320.378 212.21 320.378 212.964V214.413C320.378 214.548 320.398 214.761 320.438 215.031C320.477 215.302 320.536 215.592 320.615 215.939H324.956V215.398C324.719 215.379 324.601 215.07 324.581 214.49C324.581 214.471 324.581 214.452 324.581 214.432L324.502 212.403C324.483 211.418 324.305 210.684 323.95 210.181C323.614 209.679 323.062 209.331 322.312 209.157C323.042 208.809 323.595 208.346 323.93 207.766C324.285 207.186 324.463 206.433 324.463 205.544C324.463 204.056 324.029 202.974 323.18 202.317C322.332 201.66 320.891 201.332 318.879 201.332H312.466V215.92H316.708V210.916ZM316.708 204.887H318.563C319.313 204.887 319.826 204.984 320.082 205.196C320.339 205.389 320.477 205.756 320.477 206.278C320.477 206.781 320.339 207.128 320.082 207.341C319.826 207.534 319.352 207.65 318.662 207.65H316.708V204.887Z" fill="black"></path></svg> 