<?xml version="1.0" encoding="UTF-8"?> <svg xmlns="http://www.w3.org/2000/svg" width="672" height="417" viewBox="0 0 672 417" fill="none"><rect width="672" height="417" fill="white"></rect><path d="M304.964 218.983C302.279 222.729 299.636 226.076 297.317 229.623C296.138 231.456 294.795 232.173 292.68 231.855C292.03 231.735 291.338 232.054 290.565 231.496C292.924 228.428 295.446 225.558 297.602 222.37C299.025 220.298 300.571 218.306 302.117 216.273C302.686 215.516 302.727 214.879 302.198 214.002C299.107 208.702 296.748 202.924 291.379 198.341C295.039 198.341 298.009 198.301 301.018 198.341C301.751 198.341 301.913 199.058 302.157 199.576C303.784 202.605 305.452 205.633 307.241 208.901C308.95 206.59 310.577 204.398 312.203 202.206C312.244 202.167 312.244 202.087 312.285 202.007C313.79 198.739 316.311 197.385 320.013 198.5C319.647 199.855 318.386 200.851 317.45 201.927C314.725 205.036 312.651 208.622 310.048 211.85C309.763 212.209 309.356 212.607 309.763 213.245C313.017 218.545 315.132 224.482 319.443 229.185C319.809 229.583 320.053 230.061 320.541 230.38C320.623 227.91 322.168 226.236 323.185 224.363C327.049 217.27 330.994 210.216 334.899 203.163C335.021 202.964 335.062 202.685 335.184 202.246C330.181 202.525 325.219 201.489 320.623 204.039C320.623 203.8 320.541 203.601 320.582 203.402C321.03 201.768 320.989 199.536 322.046 198.62C323.267 197.584 325.544 198.341 327.375 198.301C331.971 198.261 336.607 198.301 341.203 198.301C343.928 198.301 344.742 199.736 343.44 202.087C338.966 210.136 334.533 218.186 330.1 226.236C329.896 226.634 329.693 227.033 329.286 227.75C334.899 227.033 340.39 229.025 345.596 225.678C345.515 227.75 344.701 229.424 344.295 231.137C344.132 231.775 343.4 231.616 342.871 231.616C332.906 231.616 322.941 231.576 312.976 231.655C311.471 231.655 311.187 230.619 310.699 229.782C308.828 226.316 306.997 222.809 304.964 218.983Z" fill="black"></path><path d="M382.122 203.68C383.627 202.046 384.806 200.811 386.189 199.735C387.491 198.699 388.996 198.101 390.582 197.822C393.714 197.304 395.666 198.459 396.927 201.408C397.212 202.126 397.496 202.883 397.822 203.799C399.245 202.325 400.465 200.771 402.092 199.655C403.109 198.977 404.167 198.42 405.306 198.061C409.251 196.865 412.098 198.34 413.237 202.245C413.684 203.759 414.01 205.314 413.969 206.908C413.969 212.008 414.01 217.109 413.969 222.25C413.928 225.358 414.132 228.387 415.23 231.495C412.179 231.495 409.251 231.495 406.485 231.495C408.071 223.007 407.583 214.519 407.014 205.991C407.014 205.712 406.932 205.473 406.892 205.194C406.16 202.365 404.98 201.926 402.743 203.759C400.059 205.911 398.432 208.86 398.269 212.128C397.984 217.587 397.7 223.126 398.513 228.586C398.676 229.542 399.001 230.459 399.286 231.614C396.52 231.614 393.876 231.614 391.192 231.614C390.419 231.614 390.175 231.256 390.46 230.658C391.924 227.39 391.477 223.883 391.477 220.496C391.436 215.914 391.802 211.371 391.192 206.788C390.989 205.234 390.948 203.281 389.28 202.723C387.735 202.205 386.677 203.839 385.701 204.835C383.789 206.788 382.447 209.219 382.325 211.849C382.081 217.587 381.715 223.365 382.651 229.104C382.773 229.861 383.017 230.618 383.261 231.574C380.495 231.574 377.811 231.574 375.085 231.574C374.516 231.574 374.191 231.535 374.435 230.817C376.062 226.474 375.085 221.931 375.248 217.468C375.37 214.439 375.207 211.371 375.289 208.302C375.411 204.915 375.126 201.608 373.174 198.26C375.818 198.26 378.217 198.26 380.617 198.26C381.43 198.26 381.634 198.898 381.715 199.456C382.041 200.731 382.366 201.926 382.122 203.68Z" fill="black"></path><path d="M229.354 198.658C229.354 209.058 229.354 218.861 229.354 228.704C229.354 228.784 229.394 228.824 229.354 228.903C229.15 229.86 230.452 231.135 229.516 231.613C228.54 232.171 227.035 231.852 225.774 231.852C225.042 231.852 224.839 231.573 225.124 230.856C225.978 228.624 225.734 226.313 225.734 224.002C225.734 211.409 225.734 198.817 225.734 186.185C225.734 185.467 225.734 184.75 225.734 184.073C228.011 183.634 228.825 185.268 229.842 186.623C237.407 196.705 244.931 206.787 252.497 216.829C252.781 217.227 253.147 217.586 253.473 217.985C253.473 207.106 253.473 196.306 253.473 185.427C254.774 185.427 256.401 185.427 258.15 185.427C257.255 187.898 257.459 190.329 257.418 192.76C257.418 205.512 257.418 218.224 257.377 230.976C257.377 231.613 257.825 232.689 256.971 232.848C256.035 233.008 254.978 233.008 254.164 231.892C248.836 224.6 243.426 217.387 238.017 210.174C235.251 206.468 232.445 202.762 229.354 198.658Z" fill="black"></path><path d="M443.783 216.869C443.783 213.84 443.783 210.772 443.661 207.744C443.539 204.556 442.116 201.965 439.391 200.092C434.673 196.825 427.067 196.825 421.779 200.053C420.803 200.65 420.193 201.288 419.99 202.603C419.705 204.277 420.03 206.03 419.135 208.062C419.746 207.624 419.949 207.544 420.071 207.385C420.437 206.986 420.762 206.588 421.169 206.189C424.586 202.962 428.246 200.411 433.371 201.766C435.567 202.364 437.194 204.396 437.113 206.189C436.991 208.182 435.689 209.497 433.127 210.015C431.297 210.374 429.385 210.613 427.555 210.931C420.112 212.167 415.963 218.224 418.119 224.799C419.42 228.744 422.105 231.334 426.294 232.211C430.199 233.008 433.086 231.215 435.567 228.545C436.055 227.987 436.544 227.429 437.113 226.792C437.723 228.146 437.438 229.461 437.967 230.657C438.252 231.334 438.496 231.813 439.35 231.813C441.668 231.813 444.027 231.813 446.834 231.813C443.295 227.07 443.743 221.93 443.783 216.869ZM434.754 224.52C432.964 227.15 430.199 228.306 427.921 227.31C425.399 226.234 424.098 223.245 424.667 220.336C425.318 217.108 427.392 215.315 430.361 214.319C432.517 213.601 434.713 213.043 437.032 212.366C437.194 216.71 437.235 220.854 434.754 224.52Z" fill="black"></path><path d="M291.096 205.911C288.167 200.651 283.652 197.702 276.616 197.662C274.46 197.502 271.776 198.339 269.335 199.854C261.079 205.074 258.679 217.507 264.292 225.756C269.905 234.005 281.537 234.882 288.33 227.549C293.658 221.891 294.878 212.685 291.096 205.911ZM286.011 219.739C285.849 221.054 285.605 222.329 285.157 223.564C284.059 226.593 281.822 228.306 278.609 228.785C275.68 229.223 273.525 227.948 271.857 225.676C269.376 222.289 268.115 218.583 268.441 214.439C268.237 211.171 268.807 208.063 270.393 205.233C273.037 200.571 279.016 199.973 282.269 204.237C285.808 208.82 286.825 214.08 286.011 219.739Z" fill="black"></path><path d="M353 212.487C357.718 212.566 362.477 212.526 367.235 212.526C372.32 212.526 372.319 212.526 371.303 207.625C369.31 198.021 360.077 194.554 351.861 200.173C343.767 205.712 342.384 217.787 346.777 225.079C351.617 233.128 360.484 235.041 367.805 229.861C370.489 227.948 370.53 227.709 368.212 225.238C367.805 225.597 367.439 225.956 367.032 226.314C362.355 229.98 356.986 229.024 353.813 224.003C351.902 220.974 351.454 217.627 351.373 214.16C351.332 212.885 351.617 212.447 353 212.487ZM356.904 202.126C359.792 200.452 362.273 201.289 363.615 204.318C363.859 204.875 364.104 205.433 364.226 205.991C364.876 208.422 364.754 208.542 362.233 208.542C359.019 208.542 355.766 208.542 352.39 208.542C353.081 205.712 354.505 203.56 356.904 202.126Z" fill="black"></path></svg> 