<?xml version="1.0" encoding="UTF-8"?> <svg xmlns="http://www.w3.org/2000/svg" width="672" height="417" viewBox="0 0 672 417" fill="none"><rect width="672" height="417" fill="white"></rect><path d="M277.652 208.848C277.653 206.974 277.285 205.118 276.569 203.386C275.852 201.654 274.801 200.081 273.476 198.756C272.151 197.431 270.578 196.38 268.846 195.663C267.114 194.947 265.258 194.579 263.384 194.58C261.499 194.557 259.627 194.909 257.879 195.617C256.131 196.324 254.542 197.372 253.203 198.7C251.864 200.028 250.803 201.609 250.081 203.352C249.36 205.094 248.992 206.962 249 208.848C248.999 210.722 249.367 212.578 250.083 214.31C250.8 216.041 251.851 217.615 253.176 218.94C254.501 220.265 256.075 221.316 257.806 222.033C259.538 222.749 261.394 223.117 263.268 223.116C265.151 223.129 267.018 222.77 268.762 222.059C270.505 221.348 272.091 220.3 273.428 218.974C274.765 217.648 275.826 216.07 276.551 214.333C277.276 212.595 277.65 210.731 277.652 208.848Z" fill="black"></path><path d="M366.972 202.236H359.548V222.188H366.972V202.236Z" fill="black"></path><path d="M328.692 222.188L325.908 212.792L322.08 222.188H307.348V208.964H302.592V222.188H295.052V202.236H314.772V215.924H316.744L322.312 203.512L318.716 194H326.72C326.72 194 334.26 215.228 336.58 222.188H328.692Z" fill="black"></path><path d="M412.095 201.772C406.063 201.772 401.075 206.18 401.075 212.212C401.075 218.244 406.063 222.652 412.095 222.652C413.498 222.686 414.893 222.443 416.201 221.936C417.509 221.429 418.704 220.669 419.717 219.699C420.731 218.729 421.542 217.568 422.105 216.283C422.669 214.998 422.972 213.615 422.999 212.212C422.972 210.809 422.669 209.426 422.105 208.141C421.542 206.856 420.731 205.695 419.717 204.725C418.704 203.755 417.509 202.995 416.201 202.488C414.893 201.981 413.498 201.738 412.095 201.772ZM412.095 215.808C411.618 215.825 411.143 215.744 410.699 215.57C410.255 215.395 409.851 215.131 409.514 214.793C409.176 214.456 408.912 214.053 408.738 213.608C408.563 213.164 408.482 212.689 408.499 212.212C408.462 211.73 408.53 211.246 408.698 210.793C408.865 210.34 409.129 209.929 409.471 209.587C409.812 209.246 410.224 208.982 410.677 208.814C411.13 208.647 411.614 208.579 412.095 208.616C412.569 208.591 413.042 208.669 413.483 208.842C413.924 209.016 414.323 209.282 414.653 209.623C414.983 209.963 415.235 210.371 415.395 210.817C415.554 211.264 415.615 211.74 415.575 212.212C415.605 212.682 415.537 213.154 415.375 213.596C415.212 214.038 414.959 214.441 414.631 214.78C414.303 215.119 413.908 215.385 413.472 215.562C413.035 215.739 412.566 215.823 412.095 215.808Z" fill="black"></path><path d="M346.673 208.5C347.162 208.493 347.648 208.585 348.101 208.769C348.554 208.953 348.966 209.227 349.312 209.573C349.658 209.919 349.931 210.33 350.115 210.784C350.3 211.237 350.391 211.723 350.385 212.212V212.328C350.405 213.34 350.028 214.32 349.334 215.058C348.64 215.795 347.684 216.231 346.673 216.272C346.153 216.276 345.639 216.177 345.158 215.98C344.678 215.784 344.241 215.493 343.874 215.126C343.507 214.759 343.217 214.323 343.02 213.842C342.823 213.362 342.724 212.847 342.729 212.328C342.727 211.815 342.828 211.307 343.027 210.834C343.226 210.361 343.518 209.933 343.887 209.575C344.255 209.218 344.691 208.938 345.17 208.754C345.649 208.569 346.16 208.483 346.673 208.5ZM345.977 201.772C344.614 201.746 343.259 201.995 341.995 202.504C340.73 203.014 339.582 203.773 338.618 204.737C337.654 205.701 336.894 206.85 336.385 208.114C335.875 209.379 335.626 210.733 335.653 212.096C335.624 213.465 335.871 214.826 336.378 216.098C336.885 217.37 337.643 218.527 338.606 219.5C339.569 220.474 340.717 221.244 341.983 221.766C343.249 222.287 344.607 222.549 345.977 222.536C347.702 222.557 349.395 222.073 350.849 221.144L351.313 222.072H357.229V202.236H351.313L350.849 203.164C349.395 202.235 347.702 201.751 345.977 201.772Z" fill="black"></path><path d="M379.5 208.732C379.994 208.706 380.489 208.784 380.951 208.962C381.413 209.139 381.833 209.411 382.183 209.761C382.533 210.111 382.805 210.531 382.982 210.993C383.16 211.455 383.238 211.95 383.212 212.444C383.238 212.938 383.16 213.433 382.982 213.895C382.805 214.357 382.533 214.777 382.183 215.127C381.833 215.477 381.413 215.749 380.951 215.927C380.489 216.104 379.994 216.182 379.5 216.156C378.991 216.196 378.48 216.129 377.999 215.96C377.518 215.79 377.078 215.522 376.706 215.173C376.335 214.823 376.041 214.4 375.843 213.93C375.645 213.46 375.547 212.954 375.556 212.444C375.556 211.937 375.661 211.435 375.862 210.97C376.063 210.504 376.358 210.085 376.727 209.737C377.096 209.39 377.533 209.121 378.01 208.948C378.487 208.775 378.994 208.702 379.5 208.732ZM399.452 202.236H379.5C373.236 202.236 368.712 206.644 368.712 212.444C368.712 218.36 373.584 222.652 379.5 222.652C385.416 222.652 389.824 218.592 389.824 213.256C389.844 211.604 389.359 209.984 388.432 208.616H391.912V222.188H399.452V202.236Z" fill="black"></path></svg> 