<?xml version="1.0" encoding="UTF-8"?> <svg xmlns="http://www.w3.org/2000/svg" width="672" height="417" viewBox="0 0 672 417" fill="none"><rect width="672" height="417" fill="white"></rect><path d="M412.711 195.064L412.691 195.084C412.671 194.907 412.671 194.73 412.631 194.553C412.531 193.963 412.39 193.392 412.189 192.842C410.785 189.144 406.752 187.177 405.046 186.488C400.572 184.855 391.241 182.751 372.179 181.944L336.423 181H336.403H336.383L300.626 181.944C281.564 182.751 272.234 184.855 267.759 186.488C266.054 187.177 262.021 189.144 260.616 192.842C260.436 193.392 260.295 193.983 260.195 194.553C260.175 194.73 260.155 194.907 260.135 195.084L260.115 195.064C259.854 197.15 260.074 199.294 260.416 201.064H260.395C260.395 201.064 262.944 212.099 265.472 217.41C270.087 227.718 275.725 230.098 277.531 230.609C279.036 231.14 281.885 232.124 284.133 232.675C299.402 236.569 322.176 236.451 322.176 236.451L336.403 236.609H336.423H336.443L350.669 236.451C350.669 236.451 373.423 236.569 388.713 232.675C390.96 232.124 393.81 231.14 395.315 230.609C397.14 230.098 402.759 227.718 407.374 217.41C409.902 212.099 412.45 201.064 412.45 201.064H412.43C412.751 199.313 412.972 197.15 412.711 195.064ZM394.452 226.773C394.452 226.773 388.793 231.868 357.251 233.639C357.251 233.639 346.014 234.524 336.423 234.406H336.403H336.383C326.771 234.524 315.555 233.639 315.555 233.639C284.012 231.868 278.354 226.773 278.354 226.773C269.144 221.344 266.535 194.75 266.535 194.75C266.375 187.55 285.638 185.937 285.638 185.937C307.168 183.006 335.339 183.046 336.383 183.046C336.383 183.046 336.383 183.046 336.403 183.046H336.423C337.466 183.046 365.638 182.987 387.168 185.937C387.168 185.937 406.451 187.55 406.27 194.75C406.27 194.75 403.682 221.344 394.452 226.773Z" fill="black"></path><path d="M332.225 196.995H324.019H318.481H310.334L310.274 202.424H318.481V220.481L324.019 220.54V202.424H332.225V196.995Z" fill="black"></path><path d="M360.88 202.424C360.519 199.71 358.492 198.352 356.626 197.664C354.921 197.093 353.356 196.995 353.356 196.995H345.55H340.012V220.481L345.55 220.54V211.905L350.125 212.003L355.503 220.54H362.124L356.125 211.512C362.746 209.84 360.88 202.424 360.88 202.424ZM353.717 206.85L345.57 206.909V202.424H353.476C355.904 202.424 355.904 204.411 355.904 204.411C356.024 206.417 353.717 206.85 353.717 206.85Z" fill="black"></path><path d="M301.087 207.616C301.087 207.616 299.521 206.612 294.305 205.963L291.094 205.531C289.83 205.216 287.823 204.527 287.984 203.327C287.984 203.327 288.064 201.38 294.184 201.714C294.947 201.813 296.03 202.049 297.033 202.501C297.635 202.796 298.277 203.19 298.739 203.681C298.96 203.937 299.16 204.213 299.301 204.527L303.775 201.813C303.775 201.813 300.444 196.993 294.906 196.993C294.906 196.993 285.074 195.892 282.927 202.423C282.927 202.423 281.342 209.189 289.429 210.684L296.672 211.687C296.672 211.687 300.244 212.455 298.538 214.618C298.538 214.618 297.214 215.976 294.284 216.015C294.264 216.015 294.264 216.015 294.244 216.015C294.184 216.015 294.124 216.015 294.044 216.015C293.923 216.015 293.803 216.015 293.682 216.015C293.161 215.995 292.579 215.936 291.957 215.818C289.088 215.228 287.743 213.556 287.242 212.75C287.161 212.612 287.081 212.455 287.001 212.297L281.964 214.52C281.964 214.52 284.593 221.346 293.963 221.11C293.963 221.11 301.207 221.444 303.715 216.92C303.715 216.881 306.725 210.684 301.087 207.616Z" fill="black"></path><path d="M388.087 208.324C388.087 208.324 391.056 206.534 390.494 202.422C390.494 202.422 389.471 196.561 380.482 196.561C380.482 196.561 371.232 196.6 370.389 202.422C370.389 202.422 369.847 206.534 372.757 208.324C372.757 208.324 369.326 210.409 369.968 215.464C369.968 215.464 371.031 221.365 380.281 221.07C380.281 221.07 389.01 221.326 390.374 216.625C390.394 216.644 392.381 211.53 388.087 208.324ZM380.482 201.459C385.398 201.675 385.197 203.996 385.197 203.996C384.696 206.278 380.362 206.081 380.362 206.081C375.827 206.16 375.566 203.799 375.566 203.799C375.646 201.636 380.482 201.459 380.482 201.459ZM385.659 213.733C385.097 216.231 380.382 215.995 380.382 215.995C375.425 216.093 375.145 213.497 375.145 213.497C375.245 211.136 380.522 210.959 380.522 210.959C385.879 211.195 385.659 213.733 385.659 213.733Z" fill="black"></path></svg> 