<?xml version="1.0" encoding="UTF-8"?> <svg xmlns="http://www.w3.org/2000/svg" width="672" height="417" viewBox="0 0 672 417" fill="none"><rect width="672" height="417" fill="white"></rect><path d="M267.378 197.254H254V185.086H295.49V197.254H282.112V232.583H267.378V197.254Z" fill="black"></path><path d="M297.807 185.087H338.117V197.254H312.54V203.164H338.117V214.463H312.54V220.373H338.117V232.54H297.807V185.087Z" fill="black"></path><path d="M340.564 185.087H364.742C380.656 185.087 386.296 196.82 386.296 208.77C386.296 223.328 378.513 232.584 361.856 232.584H340.564V185.087ZM355.298 220.416H361.069C370.25 220.416 371.606 213.029 371.606 208.553C371.606 205.555 370.644 197.255 360.02 197.255H355.342V220.416H355.298Z" fill="black"></path><path d="M407.457 214.289L402.954 206.902L398.582 214.289H387.783L398.057 199.34L388.177 185H398.976L402.954 192.083L407.108 185H417.906L408.026 199.34L418.256 214.333H407.457V214.289Z" fill="black"></path></svg> 