<?xml version="1.0" encoding="UTF-8"?> <svg xmlns="http://www.w3.org/2000/svg" width="672" height="417" viewBox="0 0 672 417" fill="none"><rect width="672" height="417" fill="white"></rect><path d="M288.828 185.237C287.747 185.522 286.617 186.062 286.211 186.483C285.911 186.786 285.961 186.852 286.992 187.944C289.346 190.414 291.045 194.018 292.231 199.029C292.693 200.965 292.693 207.187 292.25 209.123C291.825 210.874 291.438 212.186 291.138 212.875C290.995 213.178 290.888 213.499 290.888 213.6C290.888 213.902 289.259 216.978 288.234 218.629C285.424 223.117 283.282 225.273 280.36 226.531C279.635 226.834 279.142 226.899 277.687 226.917C276.076 226.935 275.864 226.899 275.302 226.531C274.558 226.027 274.096 225.486 273.659 224.596C273.235 223.723 273.197 220.321 273.609 218.272C273.753 217.5 273.996 216.135 274.159 215.262C274.302 214.389 274.515 213.125 274.633 212.489C274.74 211.836 274.896 210.726 274.989 210.002C275.077 209.277 275.202 208.606 275.252 208.505C275.32 208.404 275.426 207.864 275.501 207.294C275.658 206.101 275.964 204.248 276.295 202.485C277.337 197.135 277.056 193.602 275.395 191.132C274.265 189.452 273.022 188.627 270.462 187.837C269.244 187.469 264.361 187.232 262.856 187.469C262.113 187.588 261.988 187.671 262.044 187.938C262.081 188.122 262.15 189.149 262.188 190.206C262.256 192.237 262.206 192.605 260.964 198.78C260.839 199.385 260.701 200.24 260.626 200.715C260.558 201.167 260.414 202.045 260.289 202.651C260.164 203.257 259.952 204.313 259.827 205.008C259.702 205.697 259.49 206.724 259.384 207.276C259.259 207.828 259.134 208.505 259.103 208.79C258.997 209.515 258.534 211.801 258.216 213.166C257.86 214.68 257.966 219.674 258.372 221.324C259.259 224.803 261.257 227.766 263.892 229.482C266.915 231.465 272.26 232.409 276.132 231.649C278.855 231.127 279.423 230.943 281.671 229.916C283.495 229.072 283.545 229.043 285.212 227.849C287.46 226.252 290.095 223.462 291.863 220.819C293.293 218.664 295.085 215.066 295.647 213.166C295.716 212.881 295.878 212.424 295.965 212.157C297.308 208.422 298.214 203.007 298.176 198.786C298.139 193.371 296.865 189.316 294.46 186.929C293.605 186.044 292.987 185.723 291.394 185.302C289.977 184.934 290.014 184.934 288.828 185.237ZM334.52 185.088C334.452 185.153 334.396 185.961 334.396 186.887C334.396 187.796 334.289 189.054 334.146 189.678C334.002 190.283 333.759 191.512 333.596 192.385C332.922 196.138 332.766 197.076 332.535 198.186C332.11 200.27 331.879 201.535 331.723 202.562C331.654 203.114 331.492 203.838 331.386 204.159C331.298 204.48 331.211 204.967 331.211 205.234C331.211 205.483 331.105 206.208 330.961 206.831C330.817 207.437 330.574 208.695 330.411 209.622C330.255 210.548 330.024 211.878 329.881 212.566C329.406 215.036 329.225 216.034 329.069 217.109C328.981 217.714 328.838 218.421 328.732 218.688C328.644 218.955 328.557 219.442 328.557 219.78C328.557 220.119 328.432 220.808 328.294 221.312C327.907 222.672 327.938 226.359 328.344 227.452C328.819 228.728 329.175 229.286 330.024 230.04C331.261 231.168 333.365 231.905 335.332 231.905C336.444 231.905 338.798 231.4 339.666 230.978C340.353 230.64 340.39 230.29 339.81 229.464C338.43 227.547 338.323 224.483 339.454 219.626C339.597 219.02 339.704 218.397 339.704 218.213C339.704 218.047 339.81 217.405 339.953 216.782C340.203 215.725 340.447 214.496 341.034 211.498C341.19 210.744 341.421 209.633 341.564 209.028C341.721 208.422 341.827 207.781 341.827 207.597C341.827 207.413 341.933 206.724 342.077 206.083C342.22 205.43 342.464 204.302 342.607 203.559C342.751 202.817 342.963 201.725 343.082 201.119C343.207 200.514 343.344 199.641 343.419 199.184C343.544 198.257 343.825 196.797 344.231 194.98C344.599 193.246 344.568 189.987 344.144 188.876C343.969 188.389 343.738 187.903 343.613 187.784C343.507 187.683 343.419 187.534 343.419 187.445C343.419 187.107 342.039 186.014 341.034 185.545C340.028 185.094 339.828 185.058 337.318 185.005C335.851 184.987 334.595 185.017 334.52 185.088ZM377.828 190.016C375.598 190.402 373.669 192.373 373.669 194.291C373.669 195.74 374.818 197.355 376.391 198.145C379.433 199.641 382.973 199.089 384.797 196.832C385.309 196.191 385.396 195.906 385.484 194.932C385.59 193.472 385.328 192.73 384.372 191.786C383.204 190.64 381.787 190.052 380.001 189.969C379.189 189.915 378.221 189.945 377.828 190.016ZM347.01 200.911C346.229 201.012 346.017 201.297 346.267 201.903C346.479 202.443 346.267 204.747 345.805 206.932C345.68 207.573 345.436 208.867 345.274 209.794C345.118 210.72 344.887 212.05 344.743 212.739C344.599 213.427 344.356 214.722 344.194 215.6C344.037 216.473 343.788 217.72 343.625 218.373C343.413 219.216 343.326 220.291 343.344 222.155C343.344 224.376 343.413 224.916 343.731 225.807C344.918 228.983 346.616 230.616 349.939 231.661C351.9 232.285 356.009 232.011 357.795 231.139C358.076 231.002 358.375 230.901 358.469 230.901C358.944 230.901 361.691 228.948 362.784 227.837C366.075 224.489 367.88 220.742 369.135 214.668C369.56 212.614 369.522 207.638 369.085 205.988C368.642 204.355 368.273 203.565 367.53 202.609C366.556 201.333 365.9 201.048 364.027 201.06C362.715 201.06 362.291 201.143 361.673 201.464C361.248 201.665 360.861 201.95 360.805 202.087C360.755 202.224 360.979 202.592 361.335 202.942C361.935 203.53 363.583 206.018 363.583 206.32C363.583 206.403 363.69 206.688 363.833 206.962C364.083 207.431 364.383 208.375 364.914 210.31C365.482 212.412 365.213 216.568 364.345 219.46C363.989 220.635 362.541 224.002 362.222 224.352C362.097 224.489 361.991 224.673 361.991 224.738C361.991 225.16 359.674 227.6 358.894 228.004C358.044 228.443 356.646 228.877 356.115 228.877C355.284 228.877 354.241 228.372 353.848 227.802C353.036 226.543 353.017 225.332 353.76 221.223C353.992 219.947 354.204 218.652 354.803 215.084C354.947 214.211 355.191 212.762 355.353 211.89C356.059 207.65 356.096 207.199 355.778 205.566C355.39 203.631 354.435 202.336 352.824 201.564C351.681 201.012 348.833 200.692 347.01 200.911ZM312.907 201.654C309.723 201.873 307.156 202.681 304.502 204.313C302.891 205.287 299.369 208.856 299.369 209.497C299.369 209.562 299.263 209.734 299.138 209.865C298.994 210.013 298.644 210.738 298.326 211.48C298.007 212.222 297.639 213.077 297.495 213.38C297.352 213.683 297.246 214.051 297.246 214.205C297.246 214.36 297.139 214.858 296.996 215.333C296.852 215.802 296.64 217.014 296.534 218.041C296.253 220.683 296.727 223.355 297.826 225.273C297.982 225.54 298.182 225.926 298.288 226.128C298.551 226.668 300.355 228.485 301.28 229.102C305.564 232.047 311.914 232.498 317.06 230.26C319.82 229.049 322.299 226.947 323.904 224.423C324.666 223.248 325.778 220.843 326.152 219.632C326.839 217.346 326.964 216.467 326.964 213.98C326.946 210.53 326.415 208.594 324.754 206.178C323.973 205.05 322.225 203.47 321.307 203.102L320.776 202.853C318.746 201.737 316.461 201.398 312.907 201.654ZM315.93 204.515C316.286 204.717 316.673 205.186 316.954 205.762C317.379 206.635 317.416 206.855 317.416 209.057C317.416 211.314 317.185 213.362 316.604 216.307C315.686 221.099 315.399 222.328 315.012 223.675C314.856 224.18 314.625 224.851 314.481 225.154C314.337 225.457 314.231 225.777 314.231 225.878C314.231 226.264 312.995 227.814 312.427 228.134C311.964 228.384 311.509 228.455 310.341 228.455C308.942 228.455 308.767 228.419 308.149 227.968C306.962 227.113 306.75 226.472 306.769 223.693C306.769 222.345 306.894 220.6 307.05 219.739C307.193 218.896 307.437 217.417 307.599 216.444C307.755 215.47 308.005 214.14 308.149 213.499C308.293 212.846 308.399 212.204 308.399 212.05C308.399 211.765 308.68 210.803 309.285 209.04C310.203 206.368 311.833 204.414 313.37 204.112C314.075 203.975 315.349 204.177 315.93 204.515ZM375.23 201.618C374.593 201.665 374.012 201.754 373.956 201.802C373.906 201.849 373.956 202.224 374.062 202.627C374.256 203.352 374.062 205.032 373.406 208.28C373.282 208.921 373.038 210.215 372.876 211.142C372.719 212.068 372.47 213.344 372.345 214.003C372.22 214.645 372.008 215.666 371.883 216.271C371.758 216.877 371.62 217.732 371.545 218.207C371.421 219.133 371.14 220.594 370.734 222.411C370.59 223.052 370.484 224.376 370.484 225.338C370.484 226.971 370.521 227.137 371.052 228.081C371.67 229.209 372.376 229.815 373.725 230.45C375.28 231.174 376.61 231.441 378.358 231.376L379.951 231.329L380.001 230.824C380.02 230.539 380.157 229.779 380.282 229.144C380.425 228.491 380.669 227.208 380.831 226.282C380.988 225.356 381.237 224.026 381.362 223.337C381.506 222.648 381.643 221.805 381.699 221.484C381.768 220.914 381.893 220.226 382.424 217.447C382.549 216.758 382.792 215.428 382.955 214.502C383.111 213.576 383.361 212.246 383.504 211.557C383.841 209.823 383.841 206.261 383.485 205.4C382.218 202.36 379.757 201.232 375.23 201.618ZM401.183 201.636C396.637 201.974 392.234 204.296 389.312 207.894C386.233 211.676 384.641 216.503 385.153 220.493C385.665 224.328 386.901 226.935 389.237 228.918C391.273 230.681 395.019 231.911 398.31 231.911C400.415 231.911 403.918 230.984 405.598 230.011C407.653 228.817 409.364 227.339 410.837 225.504C411.968 224.091 412.111 223.586 411.493 223.337C411.262 223.236 410.943 223.07 410.787 222.969C410.525 222.785 410.313 222.921 409.176 224.026C407.034 226.11 405.142 227.357 403.075 228.045C401.857 228.467 399.659 228.497 398.897 228.128C398.635 227.992 398.317 227.879 398.223 227.879C398.011 227.879 396.687 226.923 396.368 226.531C395.962 226.062 395.469 224.952 395.257 223.99C394.957 222.678 395.219 219.264 395.788 217.025C396.368 214.722 396.531 214.098 396.793 213.243C396.937 212.739 397.161 212.068 397.305 211.765C397.449 211.462 397.555 211.142 397.555 211.058C397.555 210.892 398.654 208.672 399.022 208.113C399.996 206.617 401.62 204.937 402.544 204.48C402.932 204.296 403.55 204.159 404.081 204.159C405.18 204.159 405.71 204.563 406.222 205.81C406.647 206.867 406.685 207.995 406.291 209.188C405.954 210.298 406.041 210.548 406.785 210.548C407.846 210.53 410.007 210.097 410.869 209.705C413.985 208.309 413.629 205.127 410.163 203.096C407.99 201.838 405.036 201.351 401.183 201.636Z" fill="black"></path></svg> 