<?xml version="1.0" encoding="UTF-8"?> <svg xmlns="http://www.w3.org/2000/svg" width="672" height="417" viewBox="0 0 672 417" fill="none"><rect width="672" height="417" fill="white"></rect><path fill-rule="evenodd" clip-rule="evenodd" d="M350.567 204.262C350.457 204.802 350.237 205.018 349.466 205.018C344.618 205.018 339.88 205.018 335.032 205.018C334.15 205.018 333.93 205.018 333.93 204.37V194.108H323.132V222.624H333.93V212.471C334.04 211.931 334.261 211.715 334.922 211.823C339.77 211.823 344.618 211.823 349.466 211.823C350.127 211.823 350.347 211.931 350.457 212.471V222.732H361.255V194.108H350.457V204.262H350.567Z" fill="black"></path><path fill-rule="evenodd" clip-rule="evenodd" d="M369.629 194.108V222.624H403.454V216.251C403.454 216.251 383.512 216.251 381.528 216.251C380.647 216.251 380.427 216.251 380.427 215.603V212.363C380.427 211.823 380.647 211.607 381.088 211.607H401.361V205.126H381.198C380.757 205.126 380.537 204.91 380.537 204.586V201.129C380.537 200.589 380.757 200.481 381.418 200.481H403.565V194.108H369.629Z" fill="black"></path><path fill-rule="evenodd" clip-rule="evenodd" d="M438.601 213.767L428.244 196.161C427.473 194.864 426.371 194.108 424.829 194.108C423.947 194.108 411.387 194.108 411.387 194.108V222.624H422.295C422.295 222.624 422.184 203.29 422.295 203.29C422.515 203.506 429.456 215.279 432.762 220.896C433.423 221.976 434.414 222.624 435.737 222.624H449.509V194.108H438.601V213.767Z" fill="black"></path><path fill-rule="evenodd" clip-rule="evenodd" d="M467.689 201.885C467.689 201.129 468.13 200.481 468.901 200.373H491.819V194.108C491.819 194.108 460.087 194.108 458.985 194.108C457.112 194.108 456.561 194.973 456.561 196.809C456.561 204.586 456.561 212.363 456.561 220.14C456.561 221.976 457.222 222.624 459.095 222.732C459.316 222.732 489.725 222.732 490.056 222.732C491.378 222.624 491.929 222.084 491.929 220.788C491.929 217.98 491.929 205.774 491.929 205.774H473.97V212.147H481.572V216.251H467.689C467.689 216.251 467.689 205.234 467.689 201.885Z" fill="black"></path><path fill-rule="evenodd" clip-rule="evenodd" d="M282.365 200.697H299.994L282.365 216.467V222.624H315.86V216.035H298.121C298.121 216.035 310.241 205.125 314.758 201.129C315.53 200.373 315.97 199.617 315.97 198.429C315.97 198.321 315.97 194 315.97 194H282.365V200.697Z" fill="black"></path><path fill-rule="evenodd" clip-rule="evenodd" d="M266.059 194.108V214.631C265.839 215.819 264.957 216.251 263.525 216.251C260.55 216.251 253.609 216.251 253.058 216.251C251.625 216.251 250.744 215.819 250.524 214.631C250.524 213.335 250.524 194.108 250.524 194.108H239.616C239.616 194.108 239.616 213.335 239.616 214.847C239.616 219.168 243.362 222.624 247.659 222.624C247.659 222.624 265.288 222.624 268.924 222.624C273.331 222.624 276.967 219.06 276.967 214.847C276.967 213.335 276.967 194.108 276.967 194.108H266.059Z" fill="black"></path><path fill-rule="evenodd" clip-rule="evenodd" d="M218.792 212.255L212.842 194.108H202.926L196.976 212.255L191.247 194.108H181L186.289 209.446C187.611 213.227 188.823 217.007 190.145 220.788C190.586 222.192 191.247 222.624 192.789 222.624C195.434 222.624 197.968 222.624 200.612 222.624C202.265 222.624 202.706 222.3 203.257 220.788C204.358 217.655 207.994 207.934 207.994 207.934C207.994 207.934 211.52 217.223 213.173 221.652C213.393 222.3 213.724 222.624 214.495 222.624C217.58 222.624 220.665 222.624 223.75 222.624C224.852 222.624 225.513 222.192 225.844 221.22L234.989 194.108H224.632L218.792 212.255Z" fill="black"></path></svg> 